<?xml version="1.0" encoding="utf-8"?>
<!-- Generator: Adobe Illustrator 23.0.3, SVG Export Plug-In . SVG Version: 6.00 Build 0)  -->
<svg version="1.1" id="Calque_1" xmlns="http://www.w3.org/2000/svg" xmlns:xlink="http://www.w3.org/1999/xlink" x="0px" y="0px"
	 viewBox="0 -1 73.8 40" style="enable-background:new 0 -1 73.8 40;" xml:space="preserve">
<style type="text/css">
	.st0{fill:#1E1926;}
	.st1{fill:#010887;}
	.st2{fill:#BFBFBF;}
	.st3{fill:#231F20;}
	.st4{fill:none;stroke:#000000;stroke-width:1.5;stroke-miterlimit:10;}
	.st5{stroke:#FFFFFF;stroke-miterlimit:10;}
	.st6{fill:none;stroke:#000000;stroke-miterlimit:10;}
	.st7{fill:#C1FF5C;}
	.st8{fill:url(#SVGID_1_);}
	.st9{fill:url(#SVGID_2_);}
	.st10{fill:url(#SVGID_3_);}
	.st11{fill:url(#SVGID_4_);}
	.st12{fill:#FFFFFF;}
	.st13{fill:#5FDFBD;}
	.st14{fill:url(#SVGID_5_);}
	.st15{fill:url(#SVGID_6_);}
	.st16{fill:#FFE400;}
	.st17{fill:#FFAC01;}
	.st18{fill:#FF4F2B;}
	.st19{fill:#FF5B58;}
	.st20{fill:#7E0953;}
	.st21{fill:#0D081C;}
	.st22{fill:#28B574;}
	.st23{fill:#F5E0C3;}
	.st24{fill:#E8100D;}
	.st25{fill:#ED1C24;}
	.st26{fill:#00A651;}
	.st27{fill:#8326EF;}
	.st28{fill:#00FFB0;}
	.st29{fill:#FF3333;}
	.st30{fill:#0606FE;}
	.st31{fill:#00AEEF;}
	.st32{fill:#FFD205;}
</style>
<g>
	<rect x="0" y="17.2" class="st30" width="2.3" height="2.3"/>
	<rect x="6.9" y="17.2" class="st30" width="67" height="2.3"/>
	
		<rect x="71.6" y="37.8" transform="matrix(-1 -4.549706e-11 4.549706e-11 -1 145.4138 77.79)" class="st32" width="2.3" height="2.3"/>
	
		<rect x="0" y="37.8" transform="matrix(-1 -4.645985e-11 4.645985e-11 -1 66.9965 77.79)" class="st32" width="66.9" height="2.3"/>
	<rect x="51.1" y="10.4" width="2.3" height="2.3"/>
	<g>
		<path d="M0.3,24.1h2.1c0.7,0,1.3,0.2,1.7,0.5c0.4,0.3,0.6,0.8,0.6,1.4v0.8c0,0.8-0.3,1.3-1,1.5c0.8,0.2,1.1,0.7,1.1,1.6v1.3
			c0,0.6-0.2,1.1-0.6,1.4c-0.4,0.3-0.9,0.5-1.7,0.5H0.3V24.1z M3.7,26.9v-0.8c0-0.3-0.1-0.6-0.3-0.8c-0.2-0.2-0.5-0.3-0.9-0.3H1.3
			v3.1h1.1c0.4,0,0.7-0.1,0.9-0.4C3.6,27.5,3.7,27.2,3.7,26.9z M3.8,31.2V30c0-0.3-0.1-0.6-0.3-0.8c-0.2-0.2-0.5-0.4-0.9-0.4H1.3
			v3.6h1.3c0.4,0,0.7-0.1,0.9-0.3C3.7,31.8,3.8,31.5,3.8,31.2z"/>
		<path d="M13.3,25.8v5.6c0,0.6-0.2,1.1-0.6,1.4c-0.4,0.3-1,0.5-1.8,0.5c-0.8,0-1.4-0.2-1.8-0.5c-0.4-0.3-0.6-0.8-0.6-1.4v-5.6
			c0-0.6,0.2-1.1,0.6-1.4c0.4-0.3,1-0.5,1.8-0.5c0.8,0,1.4,0.2,1.8,0.5S13.3,25.2,13.3,25.8z M12.4,31.4v-5.6c0-0.7-0.5-1.1-1.4-1.1
			c-0.9,0-1.4,0.4-1.4,1.1v5.6c0,0.7,0.5,1.1,1.4,1.1C11.9,32.6,12.4,32.2,12.4,31.4z"/>
		<path d="M18.3,33.2h-1v-9.1h2.1c0.7,0,1.3,0.2,1.7,0.5c0.4,0.3,0.6,0.8,0.6,1.4v2c0,1-0.4,1.6-1.2,1.8l1.7,3.4h-1.1L19.4,30h-1.1
			V33.2z M20.7,28v-2c0-0.4-0.1-0.6-0.3-0.8c-0.2-0.2-0.5-0.3-0.9-0.3h-1.1v4.2h1.1C20.3,29.1,20.7,28.8,20.7,28z"/>
		<path d="M27.8,33.2h-2.3v-9.1h2.3c0.7,0,1.3,0.2,1.7,0.5c0.4,0.3,0.6,0.8,0.6,1.4v5.2c0,0.6-0.2,1.1-0.6,1.4
			C29.1,33,28.5,33.2,27.8,33.2z M29,31.2v-5.2c0-0.3-0.1-0.6-0.3-0.8c-0.2-0.2-0.5-0.3-0.9-0.3h-1.3v7.4h1.3c0.4,0,0.7-0.1,0.9-0.3
			C28.9,31.8,29,31.5,29,31.2z"/>
		<path d="M38.1,33.2H34v-9.1h4v0.8h-3v3.2h2.5V29H35v3.4h3.2V33.2z"/>
		<path d="M42.8,24.1h1.5l2.1,9.1h-1l-0.5-2.1h-2.7l-0.5,2.1h-1L42.8,24.1z M43.6,25.2l-1.1,5.1h2.3L43.6,25.2z"/>
		<path d="M53.4,31.4v-7.4h1v7.4c0,0.6-0.2,1.1-0.6,1.4c-0.4,0.3-1,0.5-1.8,0.5c-0.8,0-1.4-0.2-1.8-0.5c-0.4-0.3-0.6-0.8-0.6-1.4
			v-7.4h1v7.4c0,0.7,0.5,1.1,1.4,1.1S53.4,32.2,53.4,31.4z"/>
		<path d="M62.8,33.2h-1l-1.6-3.5l-1.6,3.5h-1l2.1-4.7l-2-4.4h1l1.5,3.4l1.5-3.4h1l-2,4.5L62.8,33.2z"/>
	</g>
	<g>
		<path d="M3.2,0.1H0v12.7h2.3V9.2h1c1.1,0,1.9-0.3,2.5-0.8c0.6-0.5,0.9-1.3,0.9-2.2V3.1c0-0.9-0.3-1.7-0.9-2.2
			C5.1,0.4,4.3,0.1,3.2,0.1z M2.2,2.2h1c0.4,0,0.7,0.1,0.9,0.2c0.2,0.2,0.3,0.4,0.3,0.7v3.1c0,0.6-0.2,0.9-1.1,0.9h-1V2.2z"/>
		<polygon points="12.5,5.2 10.6,0.1 8.2,0.1 11.4,8.2 11.4,12.8 13.7,12.8 13.7,8.2 16.9,0.1 14.5,0.1 		"/>
		<path d="M22.4-0.2c-1.1,0-2,0.3-2.5,0.8C19.3,1.1,19,1.9,19,2.8V10c0,1,0.3,1.7,0.9,2.2c0.6,0.5,1.5,0.8,2.6,0.8
			c1.1,0,2-0.3,2.5-0.8c0.6-0.5,0.9-1.3,0.9-2.2V8.5h-2.3V10c0,0.5-0.1,0.9-1.2,0.9s-1.2-0.5-1.2-0.9V2.8c0-0.5,0.1-0.9,1.2-0.9
			s1.2,0.5,1.2,0.9V5h2.3V2.8c0-1-0.3-1.7-0.9-2.2C24.4,0.1,23.5-0.2,22.4-0.2z"/>
		<path d="M32.7-0.2c-1.1,0-2,0.3-2.6,0.8c-0.6,0.5-0.9,1.3-0.9,2.2V10c0,1,0.3,1.7,1,2.2c0.6,0.5,1.5,0.8,2.6,0.8
			c1.1,0,2-0.3,2.6-0.8c0.6-0.5,0.9-1.3,0.9-2.2V2.8c0-1-0.3-1.7-1-2.2C34.7,0.1,33.8-0.2,32.7-0.2z M34,2.8V10
			c0,0.5-0.2,0.9-1.3,0.9c-1.1,0-1.3-0.5-1.3-0.9V2.8c0-0.5,0.2-0.9,1.3-0.9C33.8,1.9,34,2.3,34,2.8z"/>
		<polygon points="45.1,7.2 42,0.1 39.9,0.1 39.9,12.8 42.2,12.8 42.2,5.7 45.3,12.8 47.4,12.8 47.4,0.1 45.1,0.1 		"/>
		<polygon points="57.3,12.8 59.6,12.8 59.6,7.4 62.6,7.4 62.6,5.3 59.6,5.3 59.6,2.2 63.3,2.2 63.3,0.1 57.3,0.1 		"/>
		<path d="M71.4,8.2c0.9-0.5,1.4-1.4,1.4-2.6V3.1c0-0.9-0.3-1.7-0.9-2.2c-0.6-0.5-1.4-0.8-2.5-0.8h-3.2v12.7h2.3V8.6h0.7l2.1,4.1
			h2.5L71.4,8.2z M68.4,2.2h1c0.4,0,0.7,0.1,0.9,0.2c0.2,0.2,0.3,0.4,0.3,0.7v2.5c0,0.6-0.2,0.9-1.1,0.9h-1V2.2z"/>
	</g>
	<g>
		<path d="M68.7,24c-0.9,0-1.1,0.5-1.1,1v0.6h0.7V25c0-0.1,0-0.2,0.1-0.2c0.1-0.1,0.2-0.1,0.3-0.1s0.3,0,0.3,0.1
			c0.1,0.1,0.1,0.1,0.1,0.2v0.3c0,0.1,0,0.1,0,0.2c0,0,0,0.1-0.1,0.1c0,0,0,0.1-0.1,0.1c0,0.1-0.1,0.1-0.1,0.1c0,0-0.1,0.1-0.1,0.1
			c0,0.1-0.1,0.1-0.1,0.1l-1.2,1.6v0.5h2.3v-0.6h-1.4l0.8-1.2c0.2-0.3,0.4-0.5,0.4-0.7c0.1-0.2,0.1-0.3,0.1-0.5V25
			c0-0.3-0.1-0.5-0.3-0.7C69.4,24.1,69.1,24,68.7,24z"/>
		<path d="M73.2,24.3L73.2,24.3C73,24.1,72.7,24,72.3,24c-0.4,0-0.7,0.1-0.8,0.2c-0.2,0.2-0.3,0.4-0.3,0.7v2.4
			c0,0.3,0.1,0.5,0.3,0.7c0.2,0.2,0.5,0.2,0.8,0.2c0.4,0,0.7-0.1,0.8-0.2c0.2-0.2,0.3-0.4,0.3-0.7V25C73.5,24.7,73.4,24.5,73.2,24.3
			z M72.8,25v2.4c0,0.2-0.1,0.4-0.5,0.4c-0.4,0-0.5-0.2-0.5-0.4V25c0-0.2,0.1-0.4,0.5-0.4C72.7,24.6,72.8,24.8,72.8,25z"/>
		<polygon points="69.1,29.1 68.5,29.1 67.4,29.8 67.7,30.3 68.4,29.9 68.4,32.7 67.8,32.7 67.8,33.3 69.8,33.3 69.8,32.7 
			69.1,32.7 		"/>
		<path d="M73.2,29.3L73.2,29.3C73,29.1,72.7,29,72.3,29c-0.4,0-0.7,0.1-0.8,0.2c-0.2,0.2-0.3,0.4-0.3,0.7v0.7
			c0,0.3,0.1,0.5,0.3,0.7c0.2,0.2,0.5,0.2,0.8,0.2c0.2,0,0.4,0,0.5-0.1v0.8c0,0.2-0.1,0.3-0.5,0.3c-0.2,0-0.3,0-0.4-0.1v0h-0.7
			c0.1,0.4,0.3,0.7,1.1,0.7c0.9,0,1.1-0.5,1.1-1V30C73.5,29.7,73.4,29.5,73.2,29.3z M72.8,30.7c0,0.2-0.1,0.4-0.5,0.4
			c-0.4,0-0.5-0.2-0.5-0.4V30c0-0.2,0.1-0.4,0.5-0.4c0.4,0,0.5,0.2,0.5,0.4V30.7z"/>
	</g>
</g>
</svg>
