<?xml version="1.0" encoding="utf-8"?>
<!-- Generator: Adobe Illustrator 23.0.2, SVG Export Plug-In . SVG Version: 6.00 Build 0)  -->
<svg version="1.1" id="Calque_1" xmlns="http://www.w3.org/2000/svg" xmlns:xlink="http://www.w3.org/1999/xlink" x="0px" y="0px"
	 viewBox="0 0 1365.9 417.6" style="enable-background:new 0 0 1365.9 417.6;" xml:space="preserve">
<style type="text/css">
	.st0{enable-background:new    ;}
	.st1{fill:#4581BE;}
	.st2{fill:#F08080;}
	.st3{fill:#F8C2C2;}
	.st4{fill:#FFFFFF;}
</style>
<g class="st0">
	<path class="st1" d="M263.3,246c0-27.1,20.6-48,48.2-48c17.7,0,33.3,9.3,41.1,23.3l-23.8,13.8c-3.1-6.4-9.6-10.2-17.7-10.2
		c-11.8,0-20.6,8.6-20.6,21.1c0,12.6,8.7,21.1,20.6,21.1c8,0,14.7-3.8,17.7-10.2l23.8,13.6c-7.8,14.2-23.3,23.5-41.1,23.5
		C283.9,294.1,263.3,273.1,263.3,246z"/>
	<path class="st1" d="M398.2,226.7V259c0,7.8,6.7,8.6,18.7,7.8v24.7c-35.7,3.6-46-7.1-46-32.6v-32.2h-14.6v-26.2h14.6v-17.3
		l27.3-8.2v25.5h18.7v26.2L398.2,226.7L398.2,226.7z"/>
	<path class="st1" d="M426,246c0-27.1,21.5-48,48.2-48c26.7,0,48.2,20.9,48.2,48s-21.5,48-48.2,48C447.5,294.1,426,273.1,426,246z
		 M495.2,246c0-12.9-9.1-21.5-20.9-21.5s-20.9,8.6-20.9,21.5c0,12.9,9.1,21.5,20.9,21.5S495.2,259,495.2,246z"/>
	<path class="st1" d="M635.8,246c0,27.1-19.7,48-43.5,48c-12.2,0-21.1-4.2-27.1-11.1v44.9h-27.3V200.5h27.3v8.6
		c6-6.9,14.9-11.1,27.1-11.1C616.2,198,635.8,218.9,635.8,246z M608.5,246c0-13.6-9.1-22.2-21.7-22.2c-12.6,0-21.7,8.6-21.7,22.2
		c0,13.6,9.1,22.2,21.7,22.2C599.4,268.2,608.5,259.7,608.5,246z"/>
	<path class="st1" d="M737.4,200.5v91h-27.3V283c-4.9,6.7-14,11.1-26,11.1c-18.4,0-34-13.1-34-37.7v-55.9h27.3v51.9
		c0,11.3,7.1,16.6,15.8,16.6c10,0,16.9-5.8,16.9-18.7v-49.7H737.4z"/>
	<path class="st1" d="M827.1,264.2c0,20.9-18.2,29.8-37.8,29.8c-18.2,0-32-6.9-39.1-21.7l23.7-13.5c2.4,6.9,7.5,10.7,15.5,10.7
		c6.6,0,9.8-2,9.8-5.6c0-10-44.8-4.7-44.8-36.2c0-19.8,16.7-29.8,35.7-29.8c14.7,0,27.8,6.6,35.5,19.5L802.1,230
		c-2.5-4.7-6.2-8-12.2-8c-4.7,0-7.6,1.8-7.6,5.1C782.3,237.5,827.1,230.6,827.1,264.2z"/>
	<path class="st1" d="M969.9,291.5h-29.1v-74.1l-32.9,54h-3.3l-32.9-54v74.1h-29.1V164.1h29.1l34.6,56.6l34.6-56.6h29.1V291.5z"/>
	<path class="st1" d="M988.1,176.2c0-8.9,7.5-16.4,16.4-16.4c8.9,0,16.4,7.5,16.4,16.4s-7.5,16.4-16.4,16.4
		C995.6,192.5,988.1,185.1,988.1,176.2z M990.8,200.5h27.3v91h-27.3V200.5z"/>
	<path class="st1" d="M1125.5,235.7v55.9h-27.3v-51.9c0-11.3-7.1-16.6-15.8-16.6c-10,0-16.9,5.8-16.9,18.7v49.7h-27.3v-91h27.3v8.6
		c4.9-6.7,14-11.1,26-11.1C1109.8,198,1125.5,211.1,1125.5,235.7z"/>
	<path class="st1" d="M1237.6,164.1v127.4h-27.3V283c-6,6.9-14.9,11.1-27.1,11.1c-23.8,0-43.5-20.9-43.5-48s19.7-48,43.5-48
		c12.2,0,21.1,4.2,27.1,11.1v-44.9H1237.6z M1210.3,246c0-13.6-9.1-22.2-21.7-22.2c-12.6,0-21.7,8.6-21.7,22.2
		c0,13.6,9.1,22.2,21.7,22.2C1201.2,268.2,1210.3,259.7,1210.3,246z"/>
</g>
<path class="st2" d="M218,210c12,14.8,9.9,22.7,9.6,30.4c-3.8-2.2-6.4-4.4-8.2-6.6c-3.6-4.5-3.9-9.2-3.2-14.4
	C216.7,216.5,217.4,213.4,218,210z"/>
<path class="st3" d="M221.3,235.9c-5.8-8.8-4.8-18-3.6-22l-1.3-3.4c-5.4,9.3-0.3,22.4,4.6,26.6L221.3,235.9z"/>
<path class="st2" d="M142.4,220.4c4.5-1.2,21.7,9.1,6.1,17.8c-2.2,1.2-3.2-6.7-4.3-8.9C143.3,227.3,140.3,221,142.4,220.4z"/>
<path class="st2" d="M245.4,213.3c0,0,1.2,6.7,9.3,16.6c3.7,4.5,6.7,2.2,5.9,4c-4.9,6.4-22.1-12.8-25.1-20.7
	C233.1,206.8,242.6,204.8,245.4,213.3z"/>
<path class="st3" d="M260.7,233.8c-4.9,6.4-22-12.9-24.9-20.8l-3.3,2.6c3,7.9,23.2,24.8,28.1,18.4L260.7,233.8z"/>
<path class="st2" d="M160.1,171.5c-2.8-6.4,36.8-6.7,32-1.7c-8.4,12.2,4,18.7,4,32.2c-0.1,39.5-32.3,32.9-33.7,31
	c-2.2-3,13.4-1.4,18.8-11.1c4.6-8.2-0.2-17.9-6.2-27.4c-3.1-4.9-4-5.5-7.8-10.5C163.2,178.7,163.3,178.6,160.1,171.5z"/>
<path class="st3" d="M162.9,232.9c1.4,1.9,32,7.7,32-31.7c0-13.5-12.7-19.9-4.2-32.2l1.9,0.7c-8.4,12.2,4,18.7,4,32.2
	C196.5,241.4,164.3,234.8,162.9,232.9L162.9,232.9z"/>
<path class="st2" d="M189.1,147c3,8.1-4.8,44.8-8.8,37.3c-1.1-2.1-1.1,9.5-3,7.4c-9.6-10.8-27-11.4-41-14.9
	c-16.1-4-25-20.5-23.1-38.1c1-8.8,6.8-21.4,14.7-29.5c4-4.2,10.9-8,14.5-5.8c-0.1,2.9-2.6,0.5-6.6,6.5c-3.4,5.1-7.6,12.1-8.9,20
	c-2.7,16.4,3.1,24.3,13.8,26.3C163.2,160.1,185.3,136.6,189.1,147z"/>
<path class="st3" d="M178.6,193.3c-2.9-1.4-0.6-1.9-1.7-2.7c-8.7-5.9-27.2-10.5-41.1-14c-16.1-4-25-20.5-23.1-38.1
	c1-8.8,6.8-21.4,14.7-29.5c2.5-2.6,6.8-4.9,10.6-6c-3.4,1.7-3.4,2-5.4,3.5c-9.1,6.9-13.8,20.8-14.7,29.5c-2,17.7,7,34.2,23.1,38.1
	c11.1,2.7,21.3,4.4,30.3,8.3C171.3,182.4,177.1,184.7,178.6,193.3z"/>
<g>
	<g>
		<path class="st1" d="M119.5,228.4c0-37.2,29.4-65.7,65.7-65.7c36.3,0,65.7,28.5,65.7,65.7c0,37.2-29.4,65.7-65.7,65.7
			C148.9,294.1,119.5,265.6,119.5,228.4z M222,228.4c0-22.6-16.2-37.5-36.8-37.5c-20.6,0-36.8,15-36.8,37.5s16.2,37.5,36.8,37.5
			C205.8,265.9,222,250.9,222,228.4z"/>
	</g>
</g>
<path class="st2" d="M224,96c-5.1-7.1-12.4-12.5-20.8-15.3c-4.3-1.5-9-2.3-13.8-2.3c-23.6,0-44,18.7-42.7,42.3
	c1.2,21.5,9.8,29.4,20.9,43c5.1,8.3,17.1,10.7,27.2,10.7c9.2,0,13.3-4.1,13.3-4.1c3.9-3.3,8.7-7.4,13.1-16.2
	c6-11.9,11.6-19.2,11.6-33.4C232.8,111.2,229.2,103.1,224,96z"/>
<path class="st3" d="M168.1,98.5c-2.1,3.1-5.1,4.8-6.8,3.7c-1.7-1.1-1.4-4.5,0.7-7.7c2.1-3.1,5.1-4.8,6.8-3.7
	C170.5,91.9,170.2,95.4,168.1,98.5z"/>
<path class="st3" d="M156.9,106.7c-0.9,2.2-2.5,3.6-3.7,3.1c-1.2-0.5-1.4-2.6-0.5-4.8c0.9-2.2,2.5-3.6,3.7-3.1
	C157.5,102.4,157.7,104.5,156.9,106.7z"/>
<path class="st3" d="M163,115c-0.3,2.3-1.6,4.1-2.8,3.9c-1.2-0.2-2-2.2-1.7-4.5c0.3-2.3,1.6-4.1,2.8-3.9
	C162.6,110.6,163.4,112.7,163,115z"/>
<path class="st3" d="M188.9,131.8c0,8.3-6.8,15-15.1,15c-8.3,0-15.1-6.7-15.1-15c0-8.3,6.8-15,15.1-15
	C182.1,116.8,188.9,123.5,188.9,131.8z"/>
<circle class="st4" cx="173.8" cy="131.1" r="13.9"/>
<circle class="st1" cx="173.9" cy="131.8" r="5.3"/>
<path class="st2" d="M221,153c-4.8-5.1-20.3,31.4-13.9,28.9c14.5-3.1,22.1,4,28.2,16.1c22.1,43.9,44.4,5.1,43.2,3.1
	c-2-3.2-7.4,10.7-18.2,8.2c-9.4-2.2-10.6-16.8-20.1-32.2C233.4,165.9,226.4,158.7,221,153z"/>
<path class="st3" d="M278.4,199.7c1.5,2-19.4,39.2-41.6-4.7c-6.1-12.1-14.7-19.9-29.3-16.8l-0.2,3.8c14.5-3.1,21.9,4,28,16.1
	c22.1,43.9,44.5,5.1,43,3.1V199.7z"/>
<path class="st2" d="M163.2,151.5c5.3-4.6,24.3,21.6,18.1,18.5c-7.9,4.9-17.3,20.5-28.9,27.4c-19.3,11.3-31.4,9.9-32.9,7.6
	c-3.7-3.5,2.6-9.8,4.6-9.7c3-1.1,14.8-1.1,19.8-13.2C150.3,170.8,157.3,156.7,163.2,151.5z"/>
<path class="st2" d="M148.5,232.3c-0.3,3.7-7.6,3.7-6.8,5.6c0.3,0.7,4.6,1.8,8.1-0.4C159.5,231.1,149.1,229.5,148.5,232.3z"/>
<path class="st3" d="M181.5,170.5c-7.9,4.9-17.3,20.5-28.9,27.4c-19.3,11.3-30.2,10.5-31.7,8.6l-1.7-1.8c1.5,1.8,12.2,3.3,31.5-8
	c11.7-6.8,21-22.5,28.9-27.4L181.5,170.5z"/>
<path class="st2" d="M167.9,159.8c0.9-6,28.2,15.9,26.4,21.7c-3.8,11.8-10.3,24.9-25.9,35.1c-4.3,2.9-11.6,3.8-19.3,4.2
	c1.4-7.7,4-12.2,7.4-16.7c0.8-0.5,1.5-1.1,2.1-1.8C166.4,194.3,165.4,176.7,167.9,159.8z"/>
<path class="st2" d="M188.2,170.2c-2.2-5.7,29.6-1.6,30.8,4.3c2.5,12.2,8.4,28-3.1,44.7c-12.8,21.9-13.5,22.9-14.5,32.5
	c-1.2,10.5,12,16.5,3.4,15.6c-8.6-2.7-11.4-9.5-12.7-14c-1.6-10.9,2.2-23.3,8.2-41.3C203.8,201.2,194.2,186.2,188.2,170.2z"/>
<path class="st3" d="M141.7,237.8c-0.4-1.8,6.4-2.3,6.9-5.7C149,235.4,141.9,236.2,141.7,237.8z"/>
<path class="st3" d="M149.2,220c7.4-0.5,14.6-1.8,18.8-4.6c15.6-10.3,20.6-23.2,24.4-35.2l2.6,1.1c-3.8,12-10.3,24.9-25.9,35.2
	c-4.3,2.9-12.3,3.9-20.1,4.3C149,220.9,149,220.7,149.2,220z"/>
<path class="st2" d="M131.1,229.3c0.1,3-8.6-2.3-11.9-1.1c-2.1,0.8-3.4,0.6-4.9-3.5c-1-2.8-0.7-5.6,1.3-6.6
	C117.6,217.2,130.9,224.7,131.1,229.3z"/>
<path class="st3" d="M130.9,230c-0.6,1.4-9-1.8-11-1c-0.6,0.2-2.8,0.3-3.7-0.8c2,1.1,2.1,0.1,4.1-0.1
	C123.3,227.8,128.9,231,130.9,230z"/>
<path class="st3" d="M116.2,218.1c1.5-0.1,4.3-1.8,4.3-1.8l-0.5,3.2C120,219.4,118.2,218.5,116.2,218.1z"/>
<path class="st3" d="M221.5,131.8c0,8.3-6.8,15-15.1,15c-8.3,0-15.1-6.7-15.1-15c0-8.3,6.8-15,15.1-15
	C214.7,116.8,221.5,123.5,221.5,131.8z"/>
<circle class="st4" cx="206.4" cy="131.1" r="13.9"/>
<circle class="st1" cx="206.4" cy="131.8" r="5.3"/>
<path class="st3" d="M205.5,267.5c-8-2.6-10.4-9.4-11.6-13.9c-1.3-10.9,2.3-23.3,7.9-41.4c3.3-10.7-2.9-18.9-8.4-34.9l-1.6,4.4
	c5.5,15.9,10.9,19.8,7.5,30.5c-5.6,18.1-9.2,29.7-7.3,42.2C193.4,258.9,196.9,266.2,205.5,267.5L205.5,267.5z"/>
<path class="st2" d="M235.9,260c1.2,0,4.4,5.5,6.7,0.7c0.3-0.6,2.2-3.9,2.9-5.9c3.4,5.8,1,11.1-3.7,11.7
	C236.1,267.2,234.9,260.1,235.9,260z"/>
<path class="st3" d="M235.9,260c1.1,0,2.9,3.8,6.3,1.5c-0.2,0.7-1.1,1.2-1.5,1.3C239.3,263.1,238.2,262.3,235.9,260z"/>
</svg>
