<?xml version="1.0" encoding="UTF-8" standalone="no"?>
<!-- Created with Inkscape (http://www.inkscape.org/) -->

<svg
   xmlns:dc="http://purl.org/dc/elements/1.1/"
   xmlns:cc="http://creativecommons.org/ns#"
   xmlns:rdf="http://www.w3.org/1999/02/22-rdf-syntax-ns#"
   xmlns:svg="http://www.w3.org/2000/svg"
   xmlns="http://www.w3.org/2000/svg"
   xmlns:sodipodi="http://sodipodi.sourceforge.net/DTD/sodipodi-0.dtd"
   xmlns:inkscape="http://www.inkscape.org/namespaces/inkscape"
   version="1.1"
   id="svg2"
   xml:space="preserve"
   width="700"
   height="200"
   viewBox="450 350 700 200"
   sodipodi:docname="Algoo horizontal.svg"
   inkscape:version="0.92.1 r15371"><metadata
     id="metadata8"><rdf:RDF><cc:Work
         rdf:about=""><dc:format>image/svg+xml</dc:format><dc:type
           rdf:resource="http://purl.org/dc/dcmitype/StillImage" /><dc:title></dc:title></cc:Work></rdf:RDF></metadata><defs
     id="defs6" /><sodipodi:namedview
     pagecolor="#ffffff"
     bordercolor="#666666"
     borderopacity="1"
     objecttolerance="10"
     gridtolerance="10"
     guidetolerance="10"
     inkscape:pageopacity="0"
     inkscape:pageshadow="2"
     inkscape:window-width="1920"
     inkscape:window-height="1016"
     id="namedview4"
     showgrid="false"
     inkscape:zoom="0.30387197"
     inkscape:cx="180.99414"
     inkscape:cy="626.23484"
     inkscape:window-x="0"
     inkscape:window-y="27"
     inkscape:window-maximized="1"
     inkscape:current-layer="g10" /><g
     id="g10"
     inkscape:groupmode="layer"
     inkscape:label="ink_ext_XXXXXX"
     transform="matrix(1.3333333,0,0,-1.3333333,0,844.25333)"><g
       id="g5085"
       transform="translate(-328.26326,-177.70643)"><path
         d="m 726.977,425.334 c 9.673,0 14.448,1.532 16.904,4.768 1.765,2.326 2.332,5.532 2.655,9.683 0.411,5.286 0.531,9.133 0.531,9.133 0,10.85 -0.707,13.126 -1.89,17.481 3.867,1.879 8.932,6.44 11.778,11.408 -0.366,1.274 -0.738,2.488 -1.117,3.648 -2.096,6.411 -4.449,11.115 -7.719,14.424 -4.608,4.663 -11.038,6.557 -21.142,6.557 v 0 0 0 0 c -10.104,0 -16.534,-1.894 -21.142,-6.557 -3.27,-3.309 -5.622,-8.013 -7.719,-14.424 -0.379,-1.16 -0.751,-2.374 -1.117,-3.648 2.846,-4.968 7.911,-9.529 11.779,-11.408 -1.184,-4.355 -1.89,-6.631 -1.89,-17.481 0,0 0.119,-3.847 0.531,-9.133 0.323,-4.151 0.889,-7.357 2.654,-9.683 2.456,-3.236 7.231,-4.768 16.904,-4.768"
         style="fill:#baac86;fill-opacity:1;fill-rule:nonzero;stroke:none;stroke-width:0.1"
         id="path14"
         inkscape:connector-curvature="0" /><path
         d="m 726.977,425.334 c 9.673,0 14.448,1.532 16.904,4.768 1.765,2.326 2.332,5.532 2.655,9.683 0.411,5.286 0.531,9.133 0.531,9.133 0,10.85 -0.707,13.126 -1.89,17.481 3.867,1.879 8.932,6.44 11.778,11.408 -0.366,1.274 -0.738,2.488 -1.117,3.648 -2.096,6.411 -4.449,11.115 -7.719,14.424 -4.608,4.663 -11.038,6.557 -21.142,6.557 v 0 0 -77.102"
         style="fill:#cbbf9d;fill-opacity:1;fill-rule:nonzero;stroke:none;stroke-width:0.1"
         id="path16"
         inkscape:connector-curvature="0" /><path
         d="m 726.977,461.747 v -8.611 c 8.263,0.039 15.312,6.116 18.2,13.263 -4.48,-2.469 -10.53,-4.652 -18.2,-4.652 v 0"
         style="fill:#baac86;fill-opacity:1;fill-rule:nonzero;stroke:none;stroke-width:0.1"
         id="path18"
         inkscape:connector-curvature="0" /><path
         d="m 707.418,439.785 c -5.94,-5.092 -11.909,-7.688 -18.12,-8.019 -5.946,-0.317 -12.099,1.374 -18.68,5.025 3.217,-6.027 8.327,-8.891 13.872,-10.052 10.204,-2.136 21.826,1.729 25.583,3.363 v 0 c -1.765,2.326 -2.332,5.532 -2.655,9.683"
         style="fill:#baac86;fill-opacity:1;fill-rule:nonzero;stroke:none;stroke-width:0.1"
         id="path20"
         inkscape:connector-curvature="0" /><path
         d="m 689.298,431.766 c -5.946,-0.317 -12.099,1.374 -18.68,5.025 3.217,-6.027 8.327,-8.891 13.872,-10.052 2.292,1.445 3.803,3.049 4.808,5.027"
         style="fill:#6f4323;fill-opacity:1;fill-rule:nonzero;stroke:none;stroke-width:0.1"
         id="path22"
         inkscape:connector-curvature="0" /><path
         d="m 725.616,425.334 c 0,3.912 -3.169,7.082 -7.081,7.082 -3.911,0 -7.083,-3.17 -7.083,-7.082 h 14.164"
         style="fill:#6f4323;fill-opacity:1;fill-rule:nonzero;stroke:none;stroke-width:0.1"
         id="path24"
         inkscape:connector-curvature="0" /><path
         d="m 728.338,425.334 c 0,3.912 3.17,7.082 7.081,7.082 3.911,0 7.083,-3.17 7.083,-7.082 h -14.164"
         style="fill:#6f4323;fill-opacity:1;fill-rule:nonzero;stroke:none;stroke-width:0.1"
         id="path26"
         inkscape:connector-curvature="0" /><path
         d="m 719.993,439.871 c -1.392,-0.243 -2.719,0.688 -2.964,2.079 l -1.067,6.085 5.042,0.883 1.067,-6.084 c 0.244,-1.391 -0.687,-2.718 -2.078,-2.963 v 0"
         style="fill:#6f4323;fill-opacity:1;fill-rule:nonzero;stroke:none;stroke-width:0.1"
         id="path28"
         inkscape:connector-curvature="0" /><path
         d="m 733.961,439.871 c 1.392,-0.243 2.719,0.688 2.964,2.079 l 1.067,6.085 -5.042,0.883 -1.067,-6.084 c -0.244,-1.391 0.687,-2.718 2.078,-2.963 v 0"
         style="fill:#6f4323;fill-opacity:1;fill-rule:nonzero;stroke:none;stroke-width:0.1"
         id="path30"
         inkscape:connector-curvature="0" /><path
         d="m 726.977,468.25 c -0.604,0 -1.817,1.354 -1.66,1.877 l 0.669,2.07 -2.588,-2.151 c -0.511,0.058 -2.828,1.854 -2.828,2.367 0,0.496 0.554,0.736 1.03,0.818 l 5.376,0.723 v 0 h 10e-4 10e-4 v 0 h -0.002 v 0 h 10e-4 10e-4 v 0 l 5.376,-0.723 c 0.476,-0.082 1.03,-0.322 1.03,-0.818 0,-0.513 -2.317,-2.309 -2.828,-2.367 l -2.588,2.151 0.669,-2.07 c 0.157,-0.523 -1.056,-1.877 -1.66,-1.877"
         style="fill:#6f4323;fill-opacity:1;fill-rule:nonzero;stroke:none;stroke-width:0.1"
         id="path32"
         inkscape:connector-curvature="0" /><path
         d="m 713.42,488.683 c -4.722,1.544 -9.507,-0.133 -10.687,-3.746 -1.183,-3.613 1.686,-7.793 6.408,-9.338 4.721,-1.543 9.505,0.134 10.687,3.747 1.181,3.612 -1.688,7.793 -6.408,9.337"
         style="fill:#6f4323;fill-opacity:1;fill-rule:nonzero;stroke:none;stroke-width:0.1"
         id="path34"
         inkscape:connector-curvature="0" /><path
         d="m 708.308,478.443 c -1.927,1.495 -2.278,4.267 -0.786,6.193 1.495,1.928 4.268,2.279 6.195,0.785 1.927,-1.494 2.245,-6.698 2.245,-6.698 0,0 -5.727,-1.774 -7.654,-0.28"
         style="fill:#231f20;fill-opacity:1;fill-rule:nonzero;stroke:none;stroke-width:0.1"
         id="path36"
         inkscape:connector-curvature="0" /><path
         d="m 712.767,483.075 c 0,-0.748 -0.608,-1.356 -1.357,-1.356 -0.749,0 -1.357,0.608 -1.357,1.356 0,0.749 0.608,1.357 1.357,1.357 0.749,0 1.357,-0.608 1.357,-1.357"
         style="fill:#ffffff;fill-opacity:1;fill-rule:nonzero;stroke:none;stroke-width:0.1"
         id="path38"
         inkscape:connector-curvature="0" /><path
         d="m 734.126,479.346 c 1.182,-3.613 5.967,-5.29 10.687,-3.747 4.722,1.545 7.591,5.725 6.409,9.338 -1.181,3.613 -5.966,5.29 -10.687,3.746 -4.721,-1.544 -7.59,-5.725 -6.409,-9.337"
         style="fill:#6f4323;fill-opacity:1;fill-rule:nonzero;stroke:none;stroke-width:0.1"
         id="path40"
         inkscape:connector-curvature="0" /><path
         d="m 745.646,478.443 c 1.927,1.495 2.278,4.267 0.786,6.193 -1.495,1.928 -4.268,2.279 -6.195,0.785 -1.927,-1.494 -2.245,-6.698 -2.245,-6.698 0,0 5.727,-1.774 7.654,-0.28"
         style="fill:#231f20;fill-opacity:1;fill-rule:nonzero;stroke:none;stroke-width:0.1"
         id="path42"
         inkscape:connector-curvature="0" /><path
         d="m 741.187,483.075 c 0,-0.748 0.608,-1.356 1.357,-1.356 0.75,0 1.357,0.608 1.357,1.356 0,0.749 -0.607,1.357 -1.357,1.357 -0.749,0 -1.357,-0.608 -1.357,-1.357"
         style="fill:#ffffff;fill-opacity:1;fill-rule:nonzero;stroke:none;stroke-width:0.1"
         id="path44"
         inkscape:connector-curvature="0" /><path
         d="m 748.119,495.879 c 0.023,0.011 0.043,0.026 0.066,0.038 3.182,1.543 7.965,-0.397 9.89,-4.366 1.925,-3.969 0.945,-8.553 -2.236,-10.096 h -0.001 c -2.096,6.411 -4.449,11.115 -7.719,14.424"
         style="fill:#6f4323;fill-opacity:1;fill-rule:nonzero;stroke:none;stroke-width:0.1"
         id="path46"
         inkscape:connector-curvature="0" /><path
         d="m 705.835,495.879 c -0.023,0.011 -0.043,0.026 -0.066,0.038 -3.181,1.543 -7.965,-0.397 -9.89,-4.366 -1.925,-3.969 -0.945,-8.553 2.236,-10.096 h 10e-4 c 2.097,6.411 4.449,11.115 7.719,14.424"
         style="fill:#6f4323;fill-opacity:1;fill-rule:nonzero;stroke:none;stroke-width:0.1"
         id="path48"
         inkscape:connector-curvature="0" /><path
         d="m 772.772,425.334 c 9.673,0 14.448,1.532 16.904,4.768 1.765,2.326 2.332,5.532 2.655,9.683 0.411,5.286 0.717,36.385 0.531,44.51 -0.164,7.13 -0.707,14.032 -1.89,18.387 3.867,1.879 8.932,6.441 11.778,11.408 -0.366,1.274 -0.738,2.488 -1.117,3.648 -2.096,6.411 -4.449,11.115 -7.719,14.424 -4.608,4.663 -11.038,6.558 -21.142,6.558 v 0 0 0 0 c -10.104,0 -16.534,-1.895 -21.142,-6.558 -3.27,-3.309 -5.622,-8.013 -7.719,-14.424 -0.379,-1.16 -0.751,-2.374 -1.117,-3.648 2.846,-4.967 7.911,-9.529 11.779,-11.408 -1.184,-4.355 -1.727,-11.257 -1.891,-18.387 -0.186,-8.125 0.12,-39.224 0.532,-44.51 0.322,-4.151 0.889,-7.357 2.654,-9.683 2.456,-3.236 7.231,-4.768 16.904,-4.768"
         style="fill:#baac86;fill-opacity:1;fill-rule:nonzero;stroke:none;stroke-width:0.1"
         id="path50"
         inkscape:connector-curvature="0" /><path
         d="m 792.862,484.295 c 0.186,-8.125 -0.12,-39.224 -0.531,-44.51 -0.323,-4.151 -0.89,-7.357 -2.655,-9.683 -2.456,-3.236 -7.231,-4.768 -16.904,-4.768 0,1.832 0,113.386 0,113.386 10.104,0 16.534,-1.895 21.142,-6.558 3.27,-3.309 5.623,-8.013 7.719,-14.424 0.379,-1.16 0.751,-2.374 1.117,-3.648 -2.846,-4.967 -7.911,-9.529 -11.778,-11.408 1.183,-4.355 1.726,-11.257 1.89,-18.387"
         style="fill:#cbbf9d;fill-opacity:1;fill-rule:nonzero;stroke:none;stroke-width:0.1"
         id="path52"
         inkscape:connector-curvature="0" /><path
         d="m 772.772,498.031 v -8.611 c 8.263,0.038 15.312,6.115 18.2,13.262 -4.48,-2.469 -10.53,-4.651 -18.2,-4.651 v 0"
         style="fill:#baac86;fill-opacity:1;fill-rule:nonzero;stroke:none;stroke-width:0.1"
         id="path54"
         inkscape:connector-curvature="0" /><path
         d="m 792.331,439.785 c 5.941,-5.092 11.909,-7.688 18.121,-8.019 5.946,-0.317 12.099,1.374 18.68,5.025 -3.217,-6.027 -8.328,-8.891 -13.872,-10.052 -10.204,-2.136 -21.826,1.729 -25.583,3.363 v 0 c 1.765,2.326 2.331,5.532 2.654,9.683"
         style="fill:#baac86;fill-opacity:1;fill-rule:nonzero;stroke:none;stroke-width:0.1"
         id="path56"
         inkscape:connector-curvature="0" /><path
         d="m 810.452,431.766 c 5.946,-0.317 12.099,1.374 18.68,5.025 -3.217,-6.027 -8.328,-8.891 -13.872,-10.052 -2.292,1.445 -3.804,3.049 -4.808,5.027"
         style="fill:#6f4323;fill-opacity:1;fill-rule:nonzero;stroke:none;stroke-width:0.1"
         id="path58"
         inkscape:connector-curvature="0" /><path
         d="m 771.411,425.334 c 0,3.912 -3.169,7.082 -7.081,7.082 -3.911,0 -7.083,-3.17 -7.083,-7.082 h 14.164"
         style="fill:#6f4323;fill-opacity:1;fill-rule:nonzero;stroke:none;stroke-width:0.1"
         id="path60"
         inkscape:connector-curvature="0" /><path
         d="m 774.133,425.334 c 0,3.912 3.17,7.082 7.081,7.082 3.911,0 7.083,-3.17 7.083,-7.082 h -14.164"
         style="fill:#6f4323;fill-opacity:1;fill-rule:nonzero;stroke:none;stroke-width:0.1"
         id="path62"
         inkscape:connector-curvature="0" /><path
         d="m 765.788,472.387 c -1.392,-0.243 -2.719,0.688 -2.964,2.079 l -1.067,6.085 5.042,0.883 1.067,-6.084 c 0.244,-1.392 -0.687,-2.718 -2.078,-2.963 v 0"
         style="fill:#6f4323;fill-opacity:1;fill-rule:nonzero;stroke:none;stroke-width:0.1"
         id="path64"
         inkscape:connector-curvature="0" /><path
         d="m 779.756,472.387 c 1.392,-0.243 2.719,0.688 2.964,2.079 l 1.067,6.085 -5.042,0.883 -1.067,-6.084 c -0.244,-1.392 0.687,-2.718 2.078,-2.963 v 0"
         style="fill:#6f4323;fill-opacity:1;fill-rule:nonzero;stroke:none;stroke-width:0.1"
         id="path66"
         inkscape:connector-curvature="0" /><path
         d="m 772.772,504.534 c -0.604,0 -1.817,1.354 -1.66,1.877 l 0.669,2.07 -2.588,-2.151 c -0.511,0.057 -2.828,1.853 -2.828,2.366 0,0.497 0.554,0.737 1.03,0.819 l 5.376,0.723 v 0 h 0.001 10e-4 v 0 h -0.002 v 0 h 0.001 10e-4 v 0 l 5.376,-0.723 c 0.476,-0.082 1.03,-0.322 1.03,-0.819 0,-0.513 -2.317,-2.309 -2.828,-2.366 l -2.588,2.151 0.669,-2.07 c 0.157,-0.523 -1.056,-1.877 -1.66,-1.877"
         style="fill:#6f4323;fill-opacity:1;fill-rule:nonzero;stroke:none;stroke-width:0.1"
         id="path68"
         inkscape:connector-curvature="0" /><path
         d="m 759.215,524.967 c -4.722,1.544 -9.507,-0.134 -10.687,-3.747 -1.183,-3.613 1.686,-7.793 6.408,-9.337 4.72,-1.543 9.505,0.133 10.687,3.746 1.181,3.613 -1.688,7.793 -6.408,9.338"
         style="fill:#6f4323;fill-opacity:1;fill-rule:nonzero;stroke:none;stroke-width:0.1"
         id="path70"
         inkscape:connector-curvature="0" /><path
         d="m 754.103,514.727 c -1.927,1.494 -2.278,4.267 -0.786,6.193 1.495,1.927 4.268,2.279 6.195,0.784 1.927,-1.493 2.245,-6.697 2.245,-6.697 0,0 -5.727,-1.775 -7.654,-0.28"
         style="fill:#231f20;fill-opacity:1;fill-rule:nonzero;stroke:none;stroke-width:0.1"
         id="path72"
         inkscape:connector-curvature="0" /><path
         d="m 758.562,519.358 c 0,-0.748 -0.608,-1.356 -1.357,-1.356 -0.749,0 -1.357,0.608 -1.357,1.356 0,0.75 0.608,1.358 1.357,1.358 0.749,0 1.357,-0.608 1.357,-1.358"
         style="fill:#ffffff;fill-opacity:1;fill-rule:nonzero;stroke:none;stroke-width:0.1"
         id="path74"
         inkscape:connector-curvature="0" /><path
         d="m 779.921,515.629 c 1.182,-3.613 5.967,-5.289 10.687,-3.746 4.722,1.544 7.591,5.724 6.409,9.337 -1.181,3.613 -5.966,5.291 -10.687,3.747 -4.721,-1.545 -7.59,-5.725 -6.409,-9.338"
         style="fill:#6f4323;fill-opacity:1;fill-rule:nonzero;stroke:none;stroke-width:0.1"
         id="path76"
         inkscape:connector-curvature="0" /><path
         d="m 791.441,514.727 c 1.927,1.494 2.278,4.267 0.786,6.193 -1.495,1.927 -4.268,2.279 -6.195,0.784 -1.927,-1.493 -2.245,-6.697 -2.245,-6.697 0,0 5.727,-1.775 7.654,-0.28"
         style="fill:#231f20;fill-opacity:1;fill-rule:nonzero;stroke:none;stroke-width:0.1"
         id="path78"
         inkscape:connector-curvature="0" /><path
         d="m 786.982,519.358 c 0,-0.748 0.608,-1.356 1.357,-1.356 0.75,0 1.357,0.608 1.357,1.356 0,0.75 -0.607,1.358 -1.357,1.358 -0.749,0 -1.357,-0.608 -1.357,-1.358"
         style="fill:#ffffff;fill-opacity:1;fill-rule:nonzero;stroke:none;stroke-width:0.1"
         id="path80"
         inkscape:connector-curvature="0" /><path
         d="m 793.914,532.162 c 0.023,0.012 0.043,0.027 0.066,0.038 3.181,1.543 7.965,-0.396 9.89,-4.365 1.925,-3.969 0.945,-8.553 -2.236,-10.096 l -10e-4,-10e-4 c -2.096,6.411 -4.449,11.115 -7.719,14.424"
         style="fill:#6f4323;fill-opacity:1;fill-rule:nonzero;stroke:none;stroke-width:0.1"
         id="path82"
         inkscape:connector-curvature="0" /><path
         d="m 751.63,532.162 c -0.023,0.012 -0.043,0.027 -0.066,0.038 -3.181,1.543 -7.965,-0.396 -9.89,-4.365 -1.925,-3.969 -0.945,-8.553 2.236,-10.096 10e-4,0 10e-4,-10e-4 10e-4,-10e-4 2.097,6.411 4.449,11.115 7.719,14.424"
         style="fill:#6f4323;fill-opacity:1;fill-rule:nonzero;stroke:none;stroke-width:0.1"
         id="path84"
         inkscape:connector-curvature="0" /><path
         d="m 819.26,425.334 c 9.673,0 14.448,1.532 16.904,4.768 1.765,2.326 2.331,5.532 2.655,9.683 0.411,5.286 0.717,13.707 0.531,21.832 -0.164,7.131 -0.707,14.033 -1.891,18.388 3.868,1.879 8.933,6.441 11.779,11.408 -0.366,1.274 -0.738,2.488 -1.117,3.648 -2.097,6.411 -4.449,11.115 -7.719,14.424 -4.608,4.663 -11.038,6.558 -21.142,6.558 v 0 0 0 0 c -10.104,0 -16.534,-1.895 -21.142,-6.558 -3.27,-3.309 -5.623,-8.013 -7.719,-14.424 -0.379,-1.16 -0.751,-2.374 -1.117,-3.648 2.846,-4.967 7.911,-9.529 11.778,-11.408 -1.183,-4.355 -1.726,-11.257 -1.89,-18.388 -0.186,-8.125 0.12,-16.546 0.531,-21.832 0.323,-4.151 0.89,-7.357 2.655,-9.683 2.456,-3.236 7.231,-4.768 16.904,-4.768"
         style="fill:#baac86;fill-opacity:1;fill-rule:nonzero;stroke:none;stroke-width:0.1"
         id="path86"
         inkscape:connector-curvature="0" /><path
         d="m 839.35,461.617 c 0.186,-8.124 -0.12,-16.546 -0.531,-21.832 -0.324,-4.151 -0.89,-7.357 -2.655,-9.683 -2.456,-3.236 -7.231,-4.768 -16.904,-4.768 0,1.832 0,90.709 0,90.709 10.104,0 16.534,-1.895 21.142,-6.558 3.27,-3.309 5.622,-8.013 7.719,-14.424 0.379,-1.16 0.751,-2.374 1.117,-3.648 -2.846,-4.967 -7.911,-9.529 -11.779,-11.408 1.184,-4.355 1.727,-11.257 1.891,-18.388"
         style="fill:#cbbf9d;fill-opacity:1;fill-rule:nonzero;stroke:none;stroke-width:0.1"
         id="path88"
         inkscape:connector-curvature="0" /><path
         d="m 819.26,475.353 v -8.61 c 8.263,0.038 15.312,6.115 18.199,13.262 -4.479,-2.469 -10.529,-4.652 -18.199,-4.652 v 0"
         style="fill:#baac86;fill-opacity:1;fill-rule:nonzero;stroke:none;stroke-width:0.1"
         id="path90"
         inkscape:connector-curvature="0" /><path
         d="m 838.819,439.785 c 5.941,-5.092 11.909,-7.688 18.121,-8.019 5.946,-0.317 12.099,1.374 18.68,5.025 -3.217,-6.027 -8.328,-8.891 -13.872,-10.052 -10.204,-2.136 -21.826,1.729 -25.584,3.363 v 0 c 1.765,2.326 2.332,5.532 2.655,9.683"
         style="fill:#baac86;fill-opacity:1;fill-rule:nonzero;stroke:none;stroke-width:0.1"
         id="path92"
         inkscape:connector-curvature="0" /><path
         d="m 856.94,431.766 c 5.946,-0.317 12.099,1.374 18.68,5.025 -3.217,-6.027 -8.328,-8.891 -13.872,-10.052 -2.292,1.445 -3.804,3.049 -4.808,5.027"
         style="fill:#6f4323;fill-opacity:1;fill-rule:nonzero;stroke:none;stroke-width:0.1"
         id="path94"
         inkscape:connector-curvature="0" /><path
         d="m 817.899,425.334 c 0,3.912 -3.17,7.082 -7.081,7.082 -3.911,0 -7.083,-3.17 -7.083,-7.082 h 14.164"
         style="fill:#6f4323;fill-opacity:1;fill-rule:nonzero;stroke:none;stroke-width:0.1"
         id="path96"
         inkscape:connector-curvature="0" /><path
         d="m 820.621,425.334 c 0,3.912 3.169,7.082 7.081,7.082 3.911,0 7.083,-3.17 7.083,-7.082 h -14.164"
         style="fill:#6f4323;fill-opacity:1;fill-rule:nonzero;stroke:none;stroke-width:0.1"
         id="path98"
         inkscape:connector-curvature="0" /><path
         d="m 812.276,449.71 c -1.392,-0.243 -2.719,0.688 -2.964,2.079 l -1.067,6.085 5.042,0.883 1.067,-6.084 c 0.244,-1.392 -0.687,-2.718 -2.078,-2.963 v 0"
         style="fill:#6f4323;fill-opacity:1;fill-rule:nonzero;stroke:none;stroke-width:0.1"
         id="path100"
         inkscape:connector-curvature="0" /><path
         d="m 826.244,449.71 c 1.392,-0.243 2.719,0.688 2.964,2.079 l 1.067,6.085 -5.042,0.883 -1.067,-6.084 c -0.244,-1.392 0.687,-2.718 2.078,-2.963 v 0"
         style="fill:#6f4323;fill-opacity:1;fill-rule:nonzero;stroke:none;stroke-width:0.1"
         id="path102"
         inkscape:connector-curvature="0" /><path
         d="m 819.26,481.856 c -0.604,0 -1.817,1.355 -1.66,1.877 l 0.669,2.07 -2.588,-2.151 c -0.511,0.058 -2.828,1.854 -2.828,2.367 0,0.497 0.554,0.737 1.03,0.819 l 5.376,0.722 v 10e-4 h 10e-4 10e-4 v -10e-4 h -0.002 v 10e-4 h 10e-4 10e-4 v -10e-4 l 5.376,-0.722 c 0.476,-0.082 1.03,-0.322 1.03,-0.819 0,-0.513 -2.317,-2.309 -2.828,-2.367 l -2.588,2.151 0.669,-2.07 c 0.157,-0.522 -1.056,-1.877 -1.66,-1.877"
         style="fill:#6f4323;fill-opacity:1;fill-rule:nonzero;stroke:none;stroke-width:0.1"
         id="path104"
         inkscape:connector-curvature="0" /><path
         d="m 805.702,502.289 c -4.721,1.545 -9.506,-0.133 -10.686,-3.746 -1.183,-3.613 1.686,-7.793 6.408,-9.337 4.72,-1.543 9.505,0.133 10.687,3.746 1.181,3.613 -1.688,7.793 -6.409,9.337"
         style="fill:#6f4323;fill-opacity:1;fill-rule:nonzero;stroke:none;stroke-width:0.1"
         id="path106"
         inkscape:connector-curvature="0" /><path
         d="m 800.591,492.05 c -1.927,1.494 -2.278,4.266 -0.786,6.192 1.495,1.928 4.268,2.28 6.195,0.785 1.927,-1.493 2.245,-6.697 2.245,-6.697 0,0 -5.727,-1.775 -7.654,-0.28"
         style="fill:#231f20;fill-opacity:1;fill-rule:nonzero;stroke:none;stroke-width:0.1"
         id="path108"
         inkscape:connector-curvature="0" /><path
         d="m 805.05,496.681 c 0,-0.748 -0.608,-1.356 -1.357,-1.356 -0.75,0 -1.357,0.608 -1.357,1.356 0,0.749 0.607,1.357 1.357,1.357 0.749,0 1.357,-0.608 1.357,-1.357"
         style="fill:#ffffff;fill-opacity:1;fill-rule:nonzero;stroke:none;stroke-width:0.1"
         id="path110"
         inkscape:connector-curvature="0" /><path
         d="m 826.409,492.952 c 1.182,-3.613 5.967,-5.289 10.687,-3.746 4.722,1.544 7.591,5.724 6.408,9.337 -1.18,3.613 -5.965,5.291 -10.686,3.746 -4.721,-1.544 -7.59,-5.724 -6.409,-9.337"
         style="fill:#6f4323;fill-opacity:1;fill-rule:nonzero;stroke:none;stroke-width:0.1"
         id="path112"
         inkscape:connector-curvature="0" /><path
         d="m 837.929,492.05 c 1.927,1.494 2.278,4.266 0.786,6.192 -1.495,1.928 -4.268,2.28 -6.195,0.785 -1.927,-1.493 -2.245,-6.697 -2.245,-6.697 0,0 5.727,-1.775 7.654,-0.28"
         style="fill:#231f20;fill-opacity:1;fill-rule:nonzero;stroke:none;stroke-width:0.1"
         id="path114"
         inkscape:connector-curvature="0" /><path
         d="m 833.47,496.681 c 0,-0.748 0.608,-1.356 1.357,-1.356 0.75,0 1.357,0.608 1.357,1.356 0,0.749 -0.607,1.357 -1.357,1.357 -0.749,0 -1.357,-0.608 -1.357,-1.357"
         style="fill:#ffffff;fill-opacity:1;fill-rule:nonzero;stroke:none;stroke-width:0.1"
         id="path116"
         inkscape:connector-curvature="0" /><path
         d="m 840.402,509.485 c 0.023,0.012 0.043,0.027 0.066,0.038 3.181,1.543 7.965,-0.396 9.89,-4.365 1.925,-3.969 0.945,-8.553 -2.236,-10.096 l -10e-4,-0.001 c -2.097,6.411 -4.449,11.115 -7.719,14.424"
         style="fill:#6f4323;fill-opacity:1;fill-rule:nonzero;stroke:none;stroke-width:0.1"
         id="path118"
         inkscape:connector-curvature="0" /><path
         d="m 798.118,509.485 c -0.023,0.012 -0.043,0.027 -0.066,0.038 -3.182,1.543 -7.965,-0.396 -9.89,-4.365 -1.925,-3.969 -0.945,-8.553 2.236,-10.096 10e-4,-0.001 10e-4,-0.001 10e-4,-0.001 2.096,6.411 4.449,11.115 7.719,14.424"
         style="fill:#6f4323;fill-opacity:1;fill-rule:nonzero;stroke:none;stroke-width:0.1"
         id="path120"
         inkscape:connector-curvature="0" /><path
         d="m 903.426,429.176 c 3.711,0 7.121,0.703 10.227,2.111 3.101,1.406 5.484,3.264 7.148,5.568 1.024,1.344 1.539,2.623 1.539,3.84 v 8.832 c -2.305,0.895 -4.707,1.567 -7.203,2.016 -2.496,0.447 -5.086,0.672 -7.773,0.672 -2.497,0 -4.77,-0.274 -6.817,-0.817 -2.051,-0.545 -3.808,-1.295 -5.281,-2.255 -1.473,-0.959 -2.609,-2.129 -3.406,-3.504 -0.801,-1.377 -1.2,-2.897 -1.2,-4.561 0,-1.664 0.317,-3.232 0.957,-4.703 0.641,-1.473 1.54,-2.736 2.688,-3.793 1.152,-1.055 2.512,-1.887 4.082,-2.494 1.566,-0.61 3.246,-0.912 5.039,-0.912 z m -0.961,-3.842 c -2.301,0 -4.449,0.402 -6.43,1.201 -1.984,0.799 -3.73,1.887 -5.234,3.264 -1.504,1.375 -2.672,3.008 -3.504,4.896 -0.832,1.887 -1.246,3.92 -1.246,6.096 0,2.176 0.512,4.16 1.535,5.951 1.024,1.791 2.449,3.344 4.274,4.656 1.824,1.311 4.015,2.336 6.574,3.073 2.558,0.734 5.375,1.103 8.449,1.103 2.688,0 5.391,-0.24 8.113,-0.719 2.719,-0.48 5.164,-1.136 7.344,-1.968 v 4.896 c 0,4.735 -1.344,8.496 -4.035,11.279 -2.688,2.786 -6.336,4.176 -10.941,4.176 -2.434,0 -5.008,-0.511 -7.731,-1.535 -2.719,-1.025 -5.488,-2.496 -8.301,-4.416 l -1.824,3.264 c 6.399,4.351 12.481,6.527 18.238,6.527 6.016,0 10.754,-1.744 14.207,-5.23 3.457,-3.491 5.184,-8.305 5.184,-14.45 v -24.382 c 0,-1.602 0.707,-2.401 2.113,-2.401 v -4.32 c -0.32,-0.063 -0.656,-0.111 -1.008,-0.145 -0.351,-0.031 -0.656,-0.047 -0.91,-0.047 -1.281,0 -2.304,0.432 -3.074,1.295 -0.766,0.866 -1.215,1.905 -1.344,3.121 v 4.127 c -2.304,-3.007 -5.25,-5.312 -8.832,-6.912 -3.586,-1.597 -7.457,-2.4 -11.617,-2.4"
         style="fill:#231f20;fill-opacity:1;fill-rule:nonzero;stroke:none;stroke-width:0.1"
         id="path122"
         inkscape:connector-curvature="0" /><path
         d="m 942.114,496.375 h 4.894 v -60.191 c 0,-1.858 0.531,-3.331 1.586,-4.416 1.055,-1.09 2.512,-1.633 4.367,-1.633 0.703,0 1.551,0.08 2.543,0.24 0.992,0.158 1.906,0.398 2.738,0.721 l 0.961,-3.84 c -1.089,-0.449 -2.433,-0.817 -4.035,-1.106 -1.597,-0.287 -2.976,-0.431 -4.125,-0.431 -2.691,0 -4.851,0.816 -6.48,2.447 -1.633,1.633 -2.449,3.824 -2.449,6.576 v 61.633"
         style="fill:#231f20;fill-opacity:1;fill-rule:nonzero;stroke:none;stroke-width:0.1"
         id="path124"
         inkscape:connector-curvature="0" /><path
         d="m 987.907,429.654 c 2.109,0 4.175,0.401 6.191,1.201 2.016,0.799 3.84,1.838 5.473,3.12 1.629,1.279 2.969,2.72 4.029,4.32 1.06,1.599 1.71,3.199 1.97,4.801 v 16.416 c -0.77,1.92 -1.79,3.695 -3.07,5.328 -1.28,1.631 -2.738,3.023 -4.371,4.176 -1.633,1.15 -3.394,2.062 -5.281,2.734 -1.887,0.674 -3.793,1.01 -5.711,1.01 -3.008,0 -5.695,-0.641 -8.062,-1.92 -2.372,-1.281 -4.372,-2.946 -6,-4.992 -1.633,-2.049 -2.883,-4.37 -3.747,-6.961 -0.863,-2.592 -1.296,-5.202 -1.296,-7.825 0,-2.878 0.511,-5.599 1.539,-8.16 1.019,-2.56 2.429,-4.832 4.222,-6.814 1.789,-1.986 3.903,-3.553 6.336,-4.705 2.43,-1.153 5.024,-1.729 7.778,-1.729 z m -1.153,-4.127 c -3.457,0 -6.625,0.719 -9.504,2.16 -2.883,1.44 -5.363,3.36 -7.441,5.76 -2.082,2.401 -3.711,5.135 -4.895,8.207 -1.187,3.073 -1.777,6.24 -1.777,9.504 0,3.393 0.559,6.656 1.68,9.793 1.117,3.135 2.703,5.904 4.754,8.305 2.046,2.398 4.492,4.303 7.343,5.711 2.844,1.406 6,2.111 9.453,2.111 4.352,0 8.145,-1.137 11.379,-3.406 3.234,-2.274 5.964,-5.041 8.204,-8.305 v 10.848 h 4.42 v -50.881 c 0,-3.391 -0.64,-6.367 -1.92,-8.928 -1.28,-2.558 -2.99,-4.687 -5.14,-6.383 -2.14,-1.695 -4.638,-2.976 -7.485,-3.839 -2.848,-0.866 -5.84,-1.297 -8.977,-1.297 -2.879,0 -5.473,0.273 -7.773,0.816 -2.305,0.545 -4.34,1.313 -6.098,2.305 -1.762,0.992 -3.328,2.207 -4.703,3.646 -1.379,1.442 -2.578,3.026 -3.602,4.752 l 3.266,2.209 c 1.98,-3.392 4.672,-5.871 8.062,-7.439 3.391,-1.569 7.008,-2.354 10.848,-2.354 2.559,0 4.977,0.354 7.25,1.057 2.269,0.705 4.254,1.744 5.952,3.119 1.69,1.377 3.04,3.09 4.03,5.137 0.99,2.049 1.49,4.449 1.49,7.199 v 10.945 c -2.05,-3.263 -4.77,-5.873 -8.16,-7.824 -3.394,-1.953 -6.945,-2.928 -10.656,-2.928"
         style="fill:#231f20;fill-opacity:1;fill-rule:nonzero;stroke:none;stroke-width:0.1"
         id="path126"
         inkscape:connector-curvature="0" /><path
         d="m 1026.69,450.967 c 0,-2.946 0.51,-5.711 1.53,-8.305 1.03,-2.592 2.42,-4.848 4.18,-6.768 1.76,-1.919 3.82,-3.441 6.19,-4.56 2.37,-1.119 4.9,-1.68 7.59,-1.68 2.68,0 5.21,0.561 7.58,1.68 2.37,1.119 4.45,2.672 6.24,4.656 1.79,1.985 3.2,4.274 4.22,6.865 1.03,2.592 1.54,5.391 1.54,8.401 0,2.941 -0.51,5.711 -1.54,8.303 -1.02,2.591 -2.43,4.863 -4.22,6.816 -1.79,1.951 -3.86,3.504 -6.19,4.656 -2.34,1.153 -4.85,1.729 -7.54,1.729 -2.68,0 -5.22,-0.576 -7.58,-1.729 -2.37,-1.152 -4.43,-2.721 -6.19,-4.705 -1.77,-1.984 -3.17,-4.305 -4.23,-6.959 -1.05,-2.656 -1.58,-5.457 -1.58,-8.4 z m 19.58,-25.633 c -3.52,0 -6.77,0.689 -9.74,2.064 -2.98,1.377 -5.55,3.248 -7.73,5.618 -2.17,2.367 -3.87,5.119 -5.09,8.255 -1.21,3.135 -1.82,6.432 -1.82,9.887 0,3.52 0.62,6.848 1.87,9.985 1.25,3.134 2.96,5.888 5.13,8.255 2.18,2.368 4.76,4.241 7.74,5.618 2.97,1.375 6.19,2.062 9.64,2.062 3.46,0 6.66,-0.687 9.6,-2.062 2.95,-1.377 5.52,-3.25 7.73,-5.618 2.21,-2.367 3.94,-5.121 5.19,-8.255 1.24,-3.137 1.87,-6.465 1.87,-9.985 0,-3.455 -0.63,-6.752 -1.87,-9.887 -1.25,-3.136 -2.97,-5.888 -5.14,-8.255 -2.18,-2.37 -4.76,-4.241 -7.73,-5.618 -2.97,-1.375 -6.19,-2.064 -9.65,-2.064"
         style="fill:#231f20;fill-opacity:1;fill-rule:nonzero;stroke:none;stroke-width:0.1"
         id="path128"
         inkscape:connector-curvature="0" /><path
         d="m 1083.52,450.967 c 0,-2.946 0.51,-5.711 1.53,-8.305 1.03,-2.592 2.42,-4.848 4.18,-6.768 1.76,-1.919 3.82,-3.441 6.2,-4.56 2.36,-1.119 4.89,-1.68 7.58,-1.68 2.69,0 5.21,0.561 7.58,1.68 2.37,1.119 4.45,2.672 6.24,4.656 1.8,1.985 3.2,4.274 4.22,6.865 1.03,2.592 1.54,5.391 1.54,8.401 0,2.941 -0.51,5.711 -1.54,8.303 -1.02,2.591 -2.42,4.863 -4.22,6.816 -1.79,1.951 -3.85,3.504 -6.19,4.656 -2.34,1.153 -4.85,1.729 -7.53,1.729 -2.69,0 -5.22,-0.576 -7.59,-1.729 -2.37,-1.152 -4.43,-2.721 -6.19,-4.705 -1.76,-1.984 -3.17,-4.305 -4.22,-6.959 -1.06,-2.656 -1.59,-5.457 -1.59,-8.4 z m 19.59,-25.633 c -3.53,0 -6.77,0.689 -9.75,2.064 -2.98,1.377 -5.55,3.248 -7.73,5.618 -2.17,2.367 -3.87,5.119 -5.09,8.255 -1.21,3.135 -1.82,6.432 -1.82,9.887 0,3.52 0.62,6.848 1.87,9.985 1.25,3.134 2.96,5.888 5.14,8.255 2.17,2.368 4.75,4.241 7.73,5.618 2.97,1.375 6.19,2.062 9.65,2.062 3.45,0 6.65,-0.687 9.59,-2.062 2.95,-1.377 5.52,-3.25 7.73,-5.618 2.21,-2.367 3.94,-5.121 5.19,-8.255 1.24,-3.137 1.87,-6.465 1.87,-9.985 0,-3.455 -0.63,-6.752 -1.87,-9.887 -1.25,-3.136 -2.96,-5.888 -5.14,-8.255 -2.18,-2.37 -4.75,-4.241 -7.73,-5.618 -2.97,-1.375 -6.19,-2.064 -9.64,-2.064"
         style="fill:#231f20;fill-opacity:1;fill-rule:nonzero;stroke:none;stroke-width:0.1"
         id="path130"
         inkscape:connector-curvature="0" /><path
         d="m 1144.44,437.501 c -0.87,0.975 -2.11,1.463 -3.7,1.463 -1.32,0 -2.28,-0.25 -2.88,-0.751 -0.6,-0.499 -0.9,-1.174 -0.9,-2.02 0,-0.431 0.08,-0.788 0.23,-1.074 0.15,-0.284 0.39,-0.528 0.71,-0.73 0.32,-0.203 0.73,-0.373 1.22,-0.513 0.5,-0.139 1.09,-0.285 1.79,-0.436 0.72,-0.151 1.37,-0.32 1.96,-0.504 0.59,-0.183 1.09,-0.414 1.5,-0.692 0.41,-0.279 0.73,-0.621 0.95,-1.025 0.22,-0.405 0.34,-0.906 0.34,-1.5 0,-0.595 -0.12,-1.114 -0.36,-1.556 -0.23,-0.443 -0.56,-0.814 -0.98,-1.111 -0.43,-0.298 -0.93,-0.522 -1.52,-0.673 -0.59,-0.153 -1.24,-0.229 -1.97,-0.229 -2.1,0 -3.87,0.671 -5.33,2.013 l 0.51,0.779 c 0.57,-0.597 1.27,-1.068 2.09,-1.415 0.82,-0.348 1.75,-0.522 2.77,-0.522 1.18,0 2.1,0.214 2.76,0.645 0.67,0.43 1,1.082 1,1.956 0,0.442 -0.09,0.819 -0.27,1.129 -0.17,0.309 -0.43,0.579 -0.78,0.807 -0.35,0.228 -0.79,0.423 -1.32,0.588 -0.53,0.164 -1.16,0.323 -1.86,0.474 -0.73,0.152 -1.36,0.314 -1.91,0.485 -0.55,0.17 -1.01,0.385 -1.39,0.645 -0.37,0.259 -0.65,0.573 -0.84,0.94 -0.19,0.366 -0.29,0.828 -0.29,1.386 0,0.607 0.12,1.145 0.35,1.613 0.24,0.468 0.56,0.863 0.98,1.186 0.42,0.323 0.92,0.567 1.5,0.731 0.58,0.165 1.23,0.247 1.94,0.247 0.87,0 1.65,-0.13 2.33,-0.389 0.69,-0.26 1.31,-0.655 1.86,-1.187 l -0.49,-0.76"
         style="fill:#231f20;fill-opacity:1;fill-rule:nonzero;stroke:none;stroke-width:0.1"
         id="path132"
         inkscape:connector-curvature="0" /><path
         d="m 1155.45,431.503 -2.94,7.063 -3,-7.063 z m -3.36,8.238 h 0.83 l 5.7,-13.476 h -1.02 l -1.89,4.441 h -6.43 l -1.88,-4.441 h -1.04 l 5.73,13.476"
         style="fill:#231f20;fill-opacity:1;fill-rule:nonzero;stroke:none;stroke-width:0.1"
         id="path134"
         inkscape:connector-curvature="0" /><path
         d="m 1168.3,437.501 c -0.87,0.975 -2.11,1.463 -3.7,1.463 -1.32,0 -2.28,-0.25 -2.88,-0.751 -0.6,-0.499 -0.9,-1.174 -0.9,-2.02 0,-0.431 0.08,-0.788 0.23,-1.074 0.15,-0.284 0.39,-0.528 0.71,-0.73 0.32,-0.203 0.73,-0.373 1.22,-0.513 0.5,-0.139 1.09,-0.285 1.79,-0.436 0.72,-0.151 1.38,-0.32 1.97,-0.504 0.58,-0.183 1.08,-0.414 1.49,-0.692 0.41,-0.279 0.73,-0.621 0.95,-1.025 0.22,-0.405 0.34,-0.906 0.34,-1.5 0,-0.595 -0.12,-1.114 -0.36,-1.556 -0.23,-0.443 -0.56,-0.814 -0.98,-1.111 -0.43,-0.298 -0.93,-0.522 -1.52,-0.673 -0.59,-0.153 -1.24,-0.229 -1.97,-0.229 -2.1,0 -3.87,0.671 -5.33,2.013 l 0.51,0.779 c 0.57,-0.597 1.27,-1.068 2.09,-1.415 0.82,-0.348 1.75,-0.522 2.77,-0.522 1.18,0 2.1,0.214 2.76,0.645 0.67,0.43 1,1.082 1,1.956 0,0.442 -0.09,0.819 -0.27,1.129 -0.17,0.309 -0.43,0.579 -0.78,0.807 -0.35,0.228 -0.79,0.423 -1.32,0.588 -0.53,0.164 -1.16,0.323 -1.86,0.474 -0.73,0.152 -1.36,0.314 -1.91,0.485 -0.55,0.17 -1.01,0.385 -1.39,0.645 -0.37,0.259 -0.65,0.573 -0.84,0.94 -0.19,0.366 -0.29,0.828 -0.29,1.386 0,0.607 0.12,1.145 0.36,1.613 0.23,0.468 0.55,0.863 0.97,1.186 0.42,0.323 0.92,0.567 1.5,0.731 0.58,0.165 1.23,0.247 1.94,0.247 0.87,0 1.65,-0.13 2.33,-0.389 0.69,-0.26 1.31,-0.655 1.86,-1.187 l -0.49,-0.76"
         style="fill:#231f20;fill-opacity:1;fill-rule:nonzero;stroke:none;stroke-width:0.1"
         id="path136"
         inkscape:connector-curvature="0" /></g></g></svg>
