<svg xmlns="http://www.w3.org/2000/svg" viewBox="0 0 1000 500"><title>Fichier 4</title><g id="aee81252-83d5-44bd-9de5-afa2380dc9e0" data-name="Calque 2"><g id="a7b0f097-62e4-4e64-b956-e8d446980b77" data-name="Calque 1"><rect width="1000" height="500"/><path d="M92.16,197.72h40.37c20.18,0,32.69,11.34,32.69,26.07a24.17,24.17,0,0,1-12.51,21.77c9.57,3.09,18.4,11.95,18.4,25.06,0,18.11-14,30.18-36.81,30.18H92.16ZM133,240c9.58,0,15-4.13,15-13.11,0-8.83-5.45-13-15-13H109.41V240Zm4.28,44.62c9.42,0,15.9-4.72,15.9-14.14,0-9.57-6.48-14.29-15.9-14.29H109.41v28.43Zm41-20.62c0-24.74,16.2-38.29,35.05-38.29,9.28,0,17.08,4.4,22.68,9.55l5.78-8.07h11V300.8H236v-9.1c-4.71,5-12.08,10.58-23.12,10.58C195.63,302.28,178.25,288.73,178.25,264ZM236,269.44V258.69c0-10.6-9-18.56-19.88-18.56-11.49,0-20.91,7.66-20.91,23.86s9.42,23.86,21.06,23.86C227,287.85,236,280,236,269.44Zm173.9-42.26H389.26l-30.13,34.1V197.72H342.34V300.8h16.79V266.69l30.13,34.11h20.62L377.18,264Zm42.17,0H431.44L398.82,264l32.62,36.81h20.61L419.36,264Zm96.56-29.46L518,263.46l0,.06,0-.06-30.64-65.74H468.81V300.8h16.75V231.13l24.58,53.18h15.61l24.6-53.18V300.8h16.71V197.72ZM577.38,264c0-24.74,16.2-38.29,35-38.29,9.28,0,17.08,4.4,22.68,9.55l5.77-8.07h11V300.8H635.11v-9.1c-4.71,5-12.08,10.58-23.12,10.58C594.76,302.28,577.38,288.73,577.38,264Zm57.73,5.45V258.69c0-10.6-9-18.56-19.88-18.56-11.49,0-20.91,7.66-20.91,23.86s9.42,23.86,21,23.86C626.12,287.85,635.11,280,635.11,269.44Zm28.66-42.26h11l5.78,8.07c5-5.74,9.92-9.19,17.38-9.19h12.43l0,16H691.53c-6.94,0-11,3.25-11,11.08V300.8H663.77Zm210.64,54.63v-40.2H860.72V227.18h13.69V212.93l16.94-9.83v24.08h16.49v14.43H891.35v37.57c0,4.86,2.79,7.07,8.39,7.07h7.36V300.8H894.73C882.66,300.8,874.41,295.65,874.41,281.81Zm-34.33-6.07c-2.78,7.4-8.89,12.25-19,12.25-11.78,0-20-7.36-20.76-19.44h56.4V263.4c0-23.71-15-37.7-35.93-37.7-19.59,0-36.82,15.32-36.82,38.29s14.73,38.29,36.82,38.29c17.15,0,28.92-8.34,34-23.45C850.44,277.9,845.4,276.84,840.08,275.74ZM820.76,239.4c10.6,0,19,6,20,16.93H800.58C802.65,245.58,810.74,239.4,820.76,239.4Zm-34.24-12.23H765.9l-30.13,34V197.72H719V300.8h16.79v-34l30.13,34h20.62L753.82,264Zm-487,60.23c-12.22,0-21.35-8.39-21.35-23.41s9.13-23.41,21.35-23.41c10.56,0,17.34,5.25,19.72,13.43,3.84-.77,11.65-2.35,14.94-3.09-3.66-15.8-16.51-25.22-34.8-25.22-21.21,0-37.7,15.46-37.7,38.29s16.49,38.29,37.7,38.29c17.9,0,30.48-9.06,34.72-25.24-3.36-.75-11.1-2.31-14.9-3.07C316.5,282.4,310.13,287.4,299.55,287.4Z" fill="#fff"/></g></g></svg>