<?xml version="1.0" encoding="UTF-8"?>
<svg xmlns="http://www.w3.org/2000/svg" xmlns:xlink="http://www.w3.org/1999/xlink" viewBox="0 0 130 30" version="1.2">
  <g transform="rotate(180) translate(-395 -570)">
    <path style=" stroke:none;fill-rule:nonzero;fill:rgb(91.764832%,26.274109%,20.783997%);fill-opacity:1;" d="M 374.507812 558.257812 L 373.820312 558.246094 L 371.953125 560.113281 L 371.859375 560.90625 C 373.347656 562.226562 375.296875 563.027344 377.4375 563.027344 C 381.308594 563.027344 384.574219 560.394531 385.542969 556.828125 C 385.339844 556.96875 384.902344 556.863281 384.902344 556.863281 L 381.171875 557.476562 C 381.171875 557.476562 380.976562 557.792969 380.882812 557.773438 C 380.027344 558.707031 378.800781 559.296875 377.4375 559.296875 C 376.328125 559.296875 375.308594 558.90625 374.507812 558.257812 "/>
    <path style=" stroke:none;fill-rule:nonzero;fill:rgb(25.881958%,52.157593%,95.68634%);fill-opacity:1;" d="M 369.328125 556.820312 C 369.761719 558.421875 370.65625 559.835938 371.863281 560.90625 L 374.507812 558.261719 C 373.449219 557.402344 372.769531 556.09375 372.769531 554.628906 L 372.769531 554.164062 C 371.484375 554.164062 370.4375 553.117188 370.4375 551.828125 C 370.4375 550.542969 371.484375 549.496094 372.769531 549.496094 L 377.4375 549.496094 L 377.902344 549.027344 L 377.902344 546.226562 L 377.4375 545.765625 L 372.769531 545.765625 C 369.425781 545.765625 366.703125 548.484375 366.703125 551.828125 C 366.703125 553.898438 367.746094 555.726562 369.328125 556.820312 "/>
    <path style=" stroke:none;fill-rule:nonzero;fill:rgb(20.391846%,65.882874%,32.548523%);fill-opacity:1;" d="M 382.101562 545.765625 L 377.441406 545.765625 L 377.441406 549.496094 L 382.101562 549.496094 C 382.445312 549.496094 382.769531 549.574219 383.0625 549.707031 L 383.738281 549.5 L 385.605469 547.632812 L 385.769531 547.003906 C 384.75 546.226562 383.480469 545.765625 382.101562 545.765625 "/>
    <path style=" stroke:none;fill-rule:nonzero;fill:rgb(98.431396%,73.725891%,1.960754%);fill-opacity:1;" d="M 382.101562 557.898438 C 385.449219 557.898438 388.167969 555.175781 388.167969 551.832031 C 388.167969 549.859375 387.226562 548.109375 385.765625 547 L 383.058594 549.707031 C 383.871094 550.070312 384.4375 550.886719 384.4375 551.832031 C 384.4375 553.117188 383.390625 554.164062 382.101562 554.164062 C 381.15625 554.164062 380.34375 553.597656 379.976562 552.789062 L 377.273438 555.492188 C 378.382812 556.953125 380.132812 557.898438 382.101562 557.898438 "/>
    <path style=" stroke:none;fill-rule:nonzero;fill:rgb(37.254333%,38.822937%,40.783691%);fill-opacity:1;" d="M 302.5625 548.324219 C 304.121094 548.324219 305.425781 548.847656 306.476562 549.898438 C 307.515625 550.949219 308.035156 552.257812 308.035156 553.828125 C 308.035156 555.398438 307.515625 556.703125 306.476562 557.742188 C 305.4375 558.800781 304.128906 559.332031 302.5625 559.332031 C 300.972656 559.332031 299.679688 558.757812 298.691406 557.609375 L 299.660156 556.667969 C 300.417969 557.582031 301.382812 558.039062 302.5625 558.039062 C 303.726562 558.039062 304.703125 557.644531 305.488281 556.859375 C 306.265625 556.085938 306.652344 555.074219 306.652344 553.828125 C 306.652344 552.582031 306.265625 551.570312 305.488281 550.796875 C 304.703125 550.011719 303.726562 549.617188 302.5625 549.617188 C 301.335938 549.617188 300.269531 550.132812 299.367188 551.164062 L 298.378906 550.207031 C 298.882812 549.609375 299.496094 549.144531 300.21875 548.816406 C 300.945312 548.488281 301.726562 548.324219 302.5625 548.324219 "/>
    <path style=" stroke:none;fill-rule:nonzero;fill:rgb(37.254333%,38.822937%,40.783691%);fill-opacity:1;" d="M 295.925781 548.558594 L 297.28125 548.558594 L 297.28125 559.097656 L 295.925781 559.097656 Z M 295.925781 548.558594 "/>
    <path style=" stroke:none;fill-rule:nonzero;fill:rgb(37.254333%,38.822937%,40.783691%);fill-opacity:1;" d="M 293.40625 552.164062 C 293.40625 551.390625 293.179688 550.761719 292.730469 550.28125 C 292.277344 549.800781 291.71875 549.558594 291.050781 549.558594 C 290.382812 549.558594 289.824219 549.800781 289.371094 550.28125 C 288.921875 550.761719 288.695312 551.390625 288.695312 552.164062 C 288.695312 552.929688 288.921875 553.554688 289.371094 554.035156 C 289.835938 554.523438 290.394531 554.769531 291.050781 554.769531 C 291.707031 554.769531 292.269531 554.523438 292.730469 554.035156 C 293.179688 553.554688 293.40625 552.929688 293.40625 552.164062 M 294.761719 552.164062 C 294.761719 553.273438 294.410156 554.191406 293.714844 554.917969 C 293.007812 555.644531 292.121094 556.007812 291.050781 556.007812 C 289.980469 556.007812 289.097656 555.644531 288.402344 554.917969 C 287.695312 554.191406 287.339844 553.273438 287.339844 552.164062 C 287.339844 551.046875 287.695312 550.128906 288.402344 549.410156 C 289.097656 548.6875 289.980469 548.324219 291.050781 548.324219 C 292.121094 548.324219 293.007812 548.6875 293.714844 549.410156 C 294.410156 550.136719 294.761719 551.054688 294.761719 552.164062 "/>
    <path style=" stroke:none;fill-rule:nonzero;fill:rgb(37.254333%,38.822937%,40.783691%);fill-opacity:1;" d="M 279.855469 548.558594 L 281.152344 548.558594 L 281.152344 549.558594 L 281.210938 549.558594 C 281.417969 549.207031 281.734375 548.910156 282.160156 548.675781 C 282.585938 548.441406 283.03125 548.324219 283.492188 548.324219 C 284.375 548.324219 285.054688 548.574219 285.53125 549.082031 C 286.007812 549.585938 286.246094 550.304688 286.246094 551.238281 L 286.246094 555.769531 L 284.890625 555.769531 L 284.890625 551.324219 C 284.863281 550.148438 284.269531 549.558594 283.109375 549.558594 C 282.570312 549.558594 282.117188 549.777344 281.757812 550.214844 C 281.390625 550.652344 281.210938 551.171875 281.210938 551.78125 L 281.210938 555.769531 L 279.855469 555.769531 Z M 279.855469 548.558594 "/>
    <path style=" stroke:none;fill-rule:nonzero;fill:rgb(37.254333%,38.822937%,40.783691%);fill-opacity:1;" d="M 275.050781 549.558594 C 274.382812 549.558594 273.839844 549.800781 273.417969 550.28125 C 272.976562 550.761719 272.753906 551.390625 272.753906 552.164062 C 272.753906 552.921875 272.976562 553.542969 273.417969 554.035156 C 273.847656 554.523438 274.394531 554.769531 275.050781 554.769531 C 275.699219 554.769531 276.242188 554.523438 276.683594 554.035156 C 277.125 553.542969 277.347656 552.921875 277.347656 552.164062 C 277.347656 551.398438 277.125 550.777344 276.683594 550.296875 C 276.242188 549.804688 275.699219 549.558594 275.050781 549.558594 M 275.273438 548.324219 C 276.214844 548.324219 277.023438 548.695312 277.699219 549.441406 C 278.367188 550.195312 278.703125 551.105469 278.703125 552.164062 C 278.703125 553.226562 278.367188 554.132812 277.699219 554.886719 C 277.023438 555.632812 276.214844 556.007812 275.273438 556.007812 C 274.742188 556.007812 274.257812 555.894531 273.824219 555.667969 C 273.386719 555.441406 273.050781 555.140625 272.8125 554.769531 L 272.753906 554.769531 L 272.8125 555.769531 L 272.8125 559.097656 L 271.460938 559.097656 L 271.460938 548.558594 L 272.753906 548.558594 L 272.753906 549.558594 L 272.8125 549.558594 C 273.050781 549.1875 273.386719 548.886719 273.824219 548.660156 C 274.257812 548.4375 274.742188 548.324219 275.273438 548.324219 "/>
    <path style=" stroke:none;fill-rule:nonzero;fill:rgb(37.254333%,38.822937%,40.783691%);fill-opacity:1;" d="M 353.15625 548.324219 C 356.441406 548.324219 359.199219 551 359.199219 554.285156 C 359.199219 557.566406 356.441406 560.242188 353.15625 560.242188 C 351.34375 560.242188 350.050781 559.527344 349.078125 558.597656 L 350.222656 557.449219 C 350.921875 558.105469 351.863281 558.613281 353.15625 558.613281 C 355.554688 558.613281 357.425781 556.679688 357.425781 554.285156 C 357.425781 551.886719 355.554688 549.953125 353.15625 549.953125 C 351.605469 549.953125 350.71875 550.578125 350.152344 551.144531 C 349.6875 551.609375 349.382812 552.277344 349.265625 553.191406 L 353.199219 553.191406 L 353.199219 554.820312 L 347.683594 554.820312 C 347.625 554.53125 347.597656 554.179688 347.597656 553.804688 C 347.597656 552.582031 347.929688 551.070312 349.003906 549.996094 C 350.050781 548.90625 351.386719 548.324219 353.15625 548.324219 "/>
    <path style=" stroke:none;fill-rule:nonzero;fill:rgb(37.254333%,38.822937%,40.783691%);fill-opacity:1;" d="M 341.015625 552.160156 C 341.015625 553.542969 342.015625 554.488281 343.175781 554.488281 C 344.335938 554.488281 345.339844 553.542969 345.339844 552.160156 C 345.339844 550.796875 344.335938 549.835938 343.175781 549.835938 C 342.015625 549.835938 341.015625 550.796875 341.015625 552.160156 M 339.332031 552.160156 C 339.332031 549.953125 341.058594 548.324219 343.175781 548.324219 C 345.292969 548.324219 347.019531 549.953125 347.019531 552.160156 C 347.019531 554.386719 345.292969 555.996094 343.175781 555.996094 C 341.058594 555.996094 339.332031 554.386719 339.332031 552.160156 "/>
    <path style=" stroke:none;fill-rule:nonzero;fill:rgb(37.254333%,38.822937%,40.783691%);fill-opacity:1;" d="M 332.652344 552.160156 C 332.652344 553.542969 333.652344 554.488281 334.8125 554.488281 C 335.972656 554.488281 336.972656 553.542969 336.972656 552.160156 C 336.972656 550.796875 335.972656 549.835938 334.8125 549.835938 C 333.652344 549.835938 332.652344 550.796875 332.652344 552.160156 M 330.96875 552.160156 C 330.96875 549.953125 332.695312 548.324219 334.8125 548.324219 C 336.929688 548.324219 338.65625 549.953125 338.65625 552.160156 C 338.65625 554.386719 336.929688 555.996094 334.8125 555.996094 C 332.695312 555.996094 330.96875 554.386719 330.96875 552.160156 "/>
    <path style=" stroke:none;fill-rule:nonzero;fill:rgb(37.254333%,38.822937%,40.783691%);fill-opacity:1;" d="M 324.445312 552.148438 C 324.445312 553.5 325.347656 554.488281 326.492188 554.488281 C 327.65625 554.488281 328.628906 553.5 328.628906 552.148438 C 328.628906 550.808594 327.65625 549.835938 326.492188 549.835938 C 325.347656 549.835938 324.445312 550.808594 324.445312 552.148438 M 322.964844 555.765625 L 322.964844 548.878906 C 322.964844 546.042969 324.636719 544.882812 326.609375 544.882812 C 328.46875 544.882812 329.585938 546.132812 330.007812 547.148438 L 328.542969 547.757812 C 328.28125 547.132812 327.640625 546.394531 326.609375 546.394531 C 325.347656 546.394531 324.5625 547.175781 324.5625 548.644531 L 324.5625 549.199219 L 324.621094 549.199219 C 325 548.734375 325.726562 548.324219 326.640625 548.324219 C 328.554688 548.324219 330.3125 549.996094 330.3125 552.148438 C 330.3125 554.3125 328.554688 556 326.640625 556 C 325.726562 556 325 555.589844 324.621094 555.140625 L 324.5625 555.140625 L 324.5625 555.765625 Z M 322.964844 555.765625 "/>
    <path style=" stroke:none;fill-rule:nonzero;fill:rgb(37.254333%,38.822937%,40.783691%);fill-opacity:1;" d="M 320.070312 548.558594 L 321.753906 548.558594 L 321.753906 559.832031 L 320.070312 559.832031 Z M 320.070312 548.558594 "/>
    <path style=" stroke:none;fill-rule:nonzero;fill:rgb(37.254333%,38.822937%,40.783691%);fill-opacity:1;" d="M 317.5625 552.277344 L 314.136719 553.703125 C 314.324219 554.183594 314.890625 554.515625 315.558594 554.515625 C 316.417969 554.515625 317.605469 553.757812 317.5625 552.277344 M 313.542969 550.898438 L 312.234375 550.027344 C 312.65625 549.402344 313.671875 548.324219 315.429688 548.324219 C 317.605469 548.324219 319.234375 550.011719 319.234375 552.160156 C 319.234375 554.441406 317.59375 555.996094 315.617188 555.996094 C 313.628906 555.996094 312.65625 554.414062 312.335938 553.558594 L 312.160156 553.121094 L 317.285156 551 C 316.894531 550.230469 316.285156 549.835938 315.429688 549.835938 C 314.570312 549.835938 313.976562 550.257812 313.542969 550.898438 "/>
  </g>
</svg>
