<?xml version="1.0" encoding="UTF-8" standalone="no"?>
<svg
   xmlns:dc="http://purl.org/dc/elements/1.1/"
   xmlns:cc="http://creativecommons.org/ns#"
   xmlns:rdf="http://www.w3.org/1999/02/22-rdf-syntax-ns#"
   xmlns:svg="http://www.w3.org/2000/svg"
   xmlns="http://www.w3.org/2000/svg"
   xmlns:sodipodi="http://sodipodi.sourceforge.net/DTD/sodipodi-0.dtd"
   xmlns:inkscape="http://www.inkscape.org/namespaces/inkscape"
   height="322.71173pt"
   cursor="default"
   width="323.39954pt"
   version="1.0"
   preserveAspectRatio="xMidYMid meet"
   viewBox="-75 0 323.39954 322.71173"
   id="svg81"
   sodipodi:docname="Mergify.svg"
   inkscape:version="0.92.3 (2405546, 2018-03-11)">
  <metadata
     id="metadata85">
    <rdf:RDF>
      <cc:Work
         rdf:about="">
        <dc:format>image/svg+xml</dc:format>
        <dc:type
           rdf:resource="http://purl.org/dc/dcmitype/StillImage" />
        <dc:title></dc:title>
      </cc:Work>
    </rdf:RDF>
  </metadata>
  <sodipodi:namedview
     pagecolor="#ffffff"
     bordercolor="#666666"
     borderopacity="1"
     objecttolerance="10"
     gridtolerance="10"
     guidetolerance="10"
     inkscape:pageopacity="0"
     inkscape:pageshadow="2"
     inkscape:window-width="1920"
     inkscape:window-height="1016"
     id="namedview83"
     showgrid="false"
     fit-margin-top="0"
     fit-margin-left="0"
     fit-margin-right="0"
     fit-margin-bottom="0"
     inkscape:zoom="1.0114286"
     inkscape:cx="-128.52088"
     inkscape:cy="140.95733"
     inkscape:window-x="0"
     inkscape:window-y="27"
     inkscape:window-maximized="1"
     inkscape:current-layer="text1" />
  <defs
     id="svg_document_defs" />
  <circle
     id="white-circle-bg"
     cy="105"
     r="105"
     cx="89.43457"
     style="fill:#ffffff" />
  <g
     transform="matrix(0.1,0,0,-0.1,-15.56543,210)"
     id="g78"
     style="fill:#28abe1;stroke:none">
    <path
       d="M 898,2090 C 669,2053 473,1954 310,1790 169,1650 76,1485 27,1291 -3,1168 -3,932 27,809 76,615 169,450 310,310 450,169 615,76 809,27 c 123,-30 359,-30 482,0 194,49 359,142 499,283 141,140 234,305 283,499 30,123 30,359 0,482 -49,194 -142,359 -283,499 -139,140 -306,235 -494,281 -93,23 -309,33 -398,19 z M 738,1496 c 15,-8 35,-23 45,-34 17,-19 21,-19 65,-5 57,18 132,11 177,-16 33,-19 34,-19 96,0 172,54 294,24 352,-84 20,-39 22,-57 25,-256 l 3,-213 34,-34 c 60,-60 67,-136 18,-202 -89,-120 -273,-59 -273,92 0,51 27,109 56,120 13,5 15,34 12,212 l -3,206 -28,24 c -32,27 -84,31 -152,11 l -39,-12 3,-215 c 3,-209 3,-214 26,-232 58,-45 67,-150 18,-209 -94,-112 -273,-54 -273,88 0,53 11,83 44,113 l 26,25 v 208 c 0,194 -1,208 -20,227 -20,20 -63,26 -106,14 -11,-3 -29,-21 -39,-40 -10,-20 -27,-40 -37,-45 -16,-9 -18,-26 -18,-190 0,-149 2,-181 15,-185 28,-11 55,-69 55,-120 0,-151 -184,-212 -273,-92 -49,66 -42,142 18,203 l 35,34 v 161 161 l -35,34 c -77,77 -64,190 29,246 37,22 106,25 144,5 z"
       id="path68"
       inkscape:connector-curvature="0" />
    <path
       d="m 610,1414.5 c -59,-59 -26,-152 54,-152 48,0 65,8 81,41 33,62 2,125 -67,136 -32,5 -41,1 -68,-25 z"
       id="path70"
       inkscape:connector-curvature="0" />
    <path
       d="m 605,805 c -36,-36 -34,-88 5,-127 27,-26 36,-30 68,-25 43,7 82,46 82,83 0,32 -25,80 -45,88 -37,14 -86,6 -110,-19 z"
       id="path72"
       inkscape:connector-curvature="0" />
    <path
       d="m 986,799 c -49,-58 -20,-134 56,-146 32,-5 41,-1 68,25 61,61 26,152 -59,152 -32,0 -44,-6 -65,-31 z"
       id="path74"
       inkscape:connector-curvature="0" />
    <path
       d="m 1382,823 c -18,-7 -42,-57 -42,-87 0,-37 39,-76 82,-83 32,-5 41,-1 68,25 60,61 26,153 -57,151 -21,0 -44,-3 -51,-6 z"
       id="path76"
       inkscape:connector-curvature="0" />
  </g>
  <g
     aria-label="Mergify"
     style="font-variant:normal;font-weight:600;font-stretch:normal;font-size:90px;font-family:Poppins;fill:#000000;stroke:none;stroke-width:1px;text-rendering:geometricPrecision"
     id="text1">
    <path
       d="m -11.46,236.13174 v 62.37 h -8.19 v -49.77 l -19.89,49.77 h -7.29 l -19.98,-49.59 v 49.59 H -75 v -62.37 h 9.81 l 22.14,52.38 21.78,-52.38 z"
       style="font-variant:normal;font-weight:600;font-stretch:normal;font-size:90px;font-family:Poppins;fill:#000000;stroke:none;stroke-width:1px;text-rendering:geometricPrecision"
       id="path4617" />
    <path
       d="m 47.090625,271.05174 q 0,2.61 -0.36,4.5 H 7.2206253 q 0.27,8.46 4.7699997,12.69 4.59,4.23 11.16,4.23 5.94,0 9.9,-2.97 4.05,-3.06 4.95,-8.1 h 8.73 q -0.9,5.13 -4.05,9.18 -3.06,4.05 -8.01,6.3 -4.95,2.25 -11.16,2.25 -7.11,0 -12.6,-3.06 -5.4899997,-3.06 -8.6399997,-8.73 -3.05999999,-5.76 -3.05999999,-13.5 0,-7.74 3.05999999,-13.5 3.15,-5.76 8.6399997,-8.82 5.49,-3.06 12.6,-3.06 7.2,0 12.51,3.06 5.4,3.06 8.19,8.19 2.88,5.13 2.88,11.34 z m -8.28,0.54 q 0.27,-5.49 -1.8,-9.18 -2.07,-3.69 -5.67,-5.49 -3.6,-1.8 -7.83,-1.8 -6.75,0 -11.34,4.23 -4.5899997,4.14 -4.9499997,12.24 z"
       style="font-variant:normal;font-weight:600;font-stretch:normal;font-size:90px;font-family:Poppins;fill:#000000;stroke:none;stroke-width:1px;text-rendering:geometricPrecision"
       id="path4619" />
    <path
       d="m 65.904844,259.08174 q 2.43,-5.13 7.11,-7.92 4.68,-2.88 11.16,-2.88 v 8.91 h -2.52 q -6.93,0 -11.34,3.6 -4.41,3.51 -4.41,11.7 v 26.01 h -8.19 v -49.41 h 8.19 z"
       style="font-variant:normal;font-weight:600;font-stretch:normal;font-size:90px;font-family:Poppins;fill:#000000;stroke:none;stroke-width:1px;text-rendering:geometricPrecision"
       id="path4621" />
    <path
       d="m 112.59375,248.46174 q 7.2,0 12.15,3.6 5.04,3.6 7.02,9.63 v -12.6 h 8.19 v 50.22 q 0,6.84 -2.88,12.15 -2.88,5.31 -8.1,8.28 -5.22,2.97 -12.15,2.97 -9.99,0 -16.29,-4.86 -6.3,-4.77 -8.01,-12.96 h 8.1 q 1.44,4.95 5.4,7.74 4.05,2.88 10.35,2.88 6.66,0 10.98,-4.32 4.41,-4.23 4.41,-11.88 v -13.41 q -1.98,6.03 -7.02,9.63 -4.95,3.6 -12.15,3.6 -6.57,0 -11.7,-3.06 -5.13,-3.06 -8.1,-8.73 -2.88,-5.76 -2.88,-13.5 0,-7.74 2.88,-13.5 2.97,-5.76 8.1,-8.82 5.13,-3.06 11.7,-3.06 z m 2.34,7.29 q -7.56,0 -12.15,4.86 -4.5,4.77 -4.5,13.23 0,8.46 4.5,13.32 4.59,4.77 12.15,4.77 4.86,0 8.64,-2.25 3.87,-2.25 6.03,-6.3 2.16,-4.14 2.16,-9.54 0,-5.4 -2.16,-9.54 -2.16,-4.14 -6.03,-6.3 -3.78,-2.25 -8.64,-2.25 z"
       style="font-variant:normal;font-weight:600;font-stretch:normal;font-size:90px;font-family:Poppins;fill:#000000;stroke:none;stroke-width:1px;text-rendering:geometricPrecision"
       id="path4623" />
    <path
       d="m 151.54828,234.60174 q 0,-2.25 1.53,-3.6 1.53,-1.44 4.05,-1.44 2.52,0 4.05,1.44 1.53,1.35 1.53,3.6 0,2.25 -1.53,3.69 -1.53,1.35 -4.05,1.35 -2.52,0 -4.05,-1.35 -1.53,-1.44 -1.53,-3.69 z m 9.63,14.49 v 49.41 h -8.19 v -49.41 z"
       style="font-variant:normal;font-weight:600;font-stretch:normal;font-size:90px;font-family:Poppins;fill:#000000;stroke:none;stroke-width:1px;text-rendering:geometricPrecision"
       id="path4625" />
    <path
       d="m 196.12781,237.39174 q -6.57,-0.09 -9.18,2.25 -2.52,2.34 -2.52,8.1 v 1.35 h 11.7 v 7.2 h -11.7 v 42.21 h -8.19 v -42.21 h -7.11 v -7.2 h 7.11 v -1.98 q 0,-17.73 19.89,-16.92 z"
       style="font-variant:normal;font-weight:600;font-stretch:normal;font-size:90px;font-family:Poppins;fill:#000000;stroke:none;stroke-width:1px;text-rendering:geometricPrecision"
       id="path4627" />
    <path
       d="m 208.43953,249.09174 16.02,38.88 14.85,-38.88 h 9.09 l -29.34,72.81 h -9.27 l 10.26,-24.21 -20.79,-48.6 z"
       style="font-variant:normal;font-weight:600;font-stretch:normal;font-size:90px;font-family:Poppins;fill:#000000;stroke:none;stroke-width:1px;text-rendering:geometricPrecision"
       id="path4629" />
  </g>
</svg>
