<?xml version="1.0" encoding="UTF-8" standalone="no"?>
<!-- Created with Inkscape (http://www.inkscape.org/) -->
<svg xmlns:dc="http://purl.org/dc/elements/1.1/" xmlns:cc="http://creativecommons.org/ns#" xmlns:rdf="http://www.w3.org/1999/02/22-rdf-syntax-ns#" xmlns:svg="http://www.w3.org/2000/svg" xmlns="http://www.w3.org/2000/svg" xmlns:sodipodi="http://sodipodi.sourceforge.net/DTD/sodipodi-0.dtd" xmlns:inkscape="http://www.inkscape.org/namespaces/inkscape" width="200mm" height="50mm" id="svg4445" version="1.1">
  <defs id="defs4447">
    
    <clipPath clipPathUnits="userSpaceOnUse" id="clipPath1027">
      <rect style="display:inline;overflow:visible;visibility:visible;fill:#ffffff;fill-opacity:1;fill-rule:nonzero;stroke:#000000;stroke-width:0.35383686;stroke-linecap:butt;stroke-linejoin:miter;stroke-miterlimit:4;stroke-dasharray:none;stroke-dashoffset:0;stroke-opacity:1;marker:none;marker-start:none;marker-mid:none;marker-end:none;enable-background:accumulate" id="rect1029" width="66.002251" height="121.2943" x="82.338448" y="1045.1272"/>
    </clipPath>
  </defs>
  
  <metadata id="metadata4450">
    
  </metadata>
  <g id="layer1" transform="translate(0,-933.54331)">
    <path style="display:inline;overflow:visible;visibility:visible;fill:#3a74ac;fill-opacity:1;fill-rule:nonzero;stroke:none;stroke-width:1px;stroke-linecap:butt;stroke-linejoin:miter;stroke-miterlimit:4;stroke-dashoffset:0;stroke-opacity:1;marker:none;marker-start:none;marker-mid:none;marker-end:none;enable-background:accumulate" d="m 83.95036,972.55153 c -26.9207,0 -48.7724,17.9912 -48.7724,40.15197 0,22.1615 21.7867,42.0373 48.7724,40.1521 13.1033,-0.9153 19.0353,-12.5021 23.72589,-5.0862 3.7732,5.9658 14.8987,29.6372 31.3082,29.6372 17.3682,0 31.5039,-14.582 31.5039,-32.5716 0,-17.9897 -10.5149,-34.848 -31.5039,-32.6204 -8.038,1.3572 -9.8853,7.0178 -11.1048,-4.7439 -2.841,-16.35947 -17.0085,-34.91917 -43.92929,-34.91917 z m -0.4892,5.6731 c 20.7552,0 37.61889,14.1738 37.61889,31.64247 0,17.4682 -16.86349,31.6423 -37.61889,31.6423 -20.7551,2e-4 -37.5698,-14.1744 -37.5698,-31.6423 0,-17.46817 16.815,-31.64247 37.5698,-31.64247 z m 4.2559,6.6025 c -15.9787,0 -28.9601,9.3134 -28.9601,20.78497 0,11.4718 12.9814,20.7852 28.9601,20.7852 15.9789,0 28.96029,-9.3134 28.96029,-20.7852 0,-11.47167 -12.98139,-20.78497 -28.96029,-20.78497 z m 7.2401,7.5804 c 9.7263,0 17.61089,5.6761 17.61089,12.71557 0,7.0394 -7.88459,12.7646 -17.61089,12.7646 -9.7262,0 -17.6108,-5.7251 -17.6108,-12.7646 0,-7.03947 7.8846,-12.71557 17.6108,-12.71557 z m 45.64149,25.48017 c 11.9842,0 21.6712,11.4502 21.6712,25.529 0,14.0789 -9.6868,25.4802 -21.6712,25.4802 -11.9839,0 -21.72,-11.401 -21.72,-25.4802 1e-4,-14.079 9.7363,-25.529 21.72,-25.529 z m 0.2937,5.6731 c -7.8157,0 -14.1377,6.5406 -14.1377,14.6229 0,8.0824 6.322,14.6719 14.1377,14.6719 7.8156,0 14.1376,-6.5895 14.1376,-14.6719 0,-8.0823 -6.3221,-14.6232 -14.1376,-14.6229 z m 0.2934,7.5315 c 3.6475,0 6.604,3.1807 6.604,7.0914 0,3.9108 -2.9564,7.0916 -6.604,7.0916 -3.6474,0 -6.6041,-3.1808 -6.6041,-7.0916 3e-4,-3.9107 2.9569,-7.0914 6.6041,-7.0914 z" id="path3612"/>
    <rect style="display:inline;overflow:visible;visibility:visible;fill:#ffffff;fill-opacity:0.58695649;fill-rule:nonzero;stroke:#000000;stroke-width:0.354;stroke-linecap:butt;stroke-linejoin:miter;stroke-miterlimit:4;stroke-dasharray:none;stroke-dashoffset:0;stroke-opacity:1;marker:none;marker-start:none;marker-mid:none;marker-end:none;enable-background:accumulate" id="rect3614" width="66.002251" height="121.2943" x="74.831566" y="960.91113"/>
    <path style="display:inline;overflow:visible;visibility:visible;fill:#ffffff;fill-opacity:1;fill-rule:nonzero;stroke:none;stroke-width:1px;stroke-linecap:butt;stroke-linejoin:miter;stroke-miterlimit:4;stroke-dashoffset:0;stroke-opacity:1;marker:none;marker-start:none;marker-mid:none;marker-end:none;enable-background:accumulate" d="m 84.30314,972.53179 c -3.11799,0 -6.16322,0.25167 -9.11914,0.71289 v 5.80859 c 2.77196,-0.54906 5.65964,-0.84766 8.63086,-0.84766 20.7552,0 37.61913,14.17388 37.61913,31.64259 0,17.4682 -16.86373,31.6426 -37.61913,31.6426 -2.97126,0 -5.85888,-0.3006 -8.63086,-0.8496 v 11.9941 c 2.95455,0.3335 6.00007,0.4191 9.11914,0.2012 13.1033,-0.9153 19.03597,-12.5019 23.72655,-5.086 3.77321,5.9658 14.8991,29.6367 31.3086,29.6367 0.62104,0 1.23538,-0.024 1.84766,-0.06 v -8.457 c -0.0784,10e-4 -0.1558,0.01 -0.23438,0.01 -11.9839,0 -21.7207,-11.4013 -21.7207,-25.4805 1e-4,-14.079 9.737,-25.5293 21.7207,-25.5293 0.0786,0 0.156,0.01 0.23438,0.01 v -5.8262 c -0.60746,0.033 -1.22156,0.08 -1.84766,0.1465 -8.038,1.3572 -9.88597,7.0176 -11.10547,-4.7441 -2.841,-16.35952 -17.00889,-34.91994 -43.92968,-34.91994 z m 3.76758,12.27539 c -4.62929,0 -9.00337,0.78632 -12.88672,2.17578 v 37.21874 c 3.88335,1.3895 8.25743,2.1758 12.88672,2.1758 15.9789,0 28.95897,-9.3134 28.95897,-20.7852 0,-11.47167 -12.98007,-20.78512 -28.95897,-20.78512 z m 7.24024,7.58008 c 9.7263,0 17.60936,5.67729 17.60936,12.71684 0,7.0394 -7.88306,12.7636 -17.60936,12.7636 -9.72621,0 -17.61133,-5.7241 -17.61133,-12.7636 0,-7.03955 7.88512,-12.71684 17.61133,-12.71684 z m 45.87499,31.15824 c -7.7883,0.033 -14.07813,6.5573 -14.07813,14.6191 0,8.0619 6.28983,14.6347 14.07813,14.668 v -7.5957 c -3.48212,-0.1987 -6.25196,-3.2894 -6.25196,-7.0723 2.9e-4,-3.7828 2.77003,-6.8736 6.25196,-7.0723 z" id="path3612-5"/>
    <path style="display:inline;overflow:visible;visibility:visible;fill:none;fill-opacity:1;fill-rule:nonzero;stroke:#000000;stroke-width:0.354;stroke-linecap:butt;stroke-linejoin:miter;stroke-miterlimit:4;stroke-dasharray:none;stroke-dashoffset:0;stroke-opacity:1;marker:none;marker-start:none;marker-mid:none;marker-end:none;enable-background:accumulate" d="m 83.95056,972.55153 c -26.9208,0 -48.7725,17.9912 -48.7725,40.15197 0,22.1615 21.7868,42.0373 48.7725,40.1521 13.1033,-0.9153 19.0352,-12.5021 23.72589,-5.0862 3.7732,5.9658 14.8986,29.6372 31.3081,29.6372 17.3683,0 31.504,-14.582 31.504,-32.5716 0,-17.9897 -10.5149,-34.848 -31.504,-32.6204 -8.0379,1.3572 -9.8852,7.0178 -11.1047,-4.7439 -2.841,-16.35947 -17.0085,-34.91917 -43.92929,-34.91917 z m -0.4892,5.6731 c 20.7552,0 37.61889,14.1738 37.61889,31.64247 0,17.4682 -16.86349,31.6423 -37.61889,31.6423 -20.7552,2e-4 -37.5699,-14.1744 -37.5699,-31.6423 0,-17.46817 16.8151,-31.64247 37.5699,-31.64247 z m 4.2559,6.6025 c -15.9787,0 -28.9601,9.3134 -28.9601,20.78497 0,11.4718 12.9814,20.7852 28.9601,20.7852 15.9789,0 28.96029,-9.3134 28.96029,-20.7852 0,-11.47167 -12.98139,-20.78497 -28.96029,-20.78497 z m 7.2401,7.5804 c 9.7262,0 17.61089,5.676 17.61089,12.71557 0,7.0394 -7.88469,12.7646 -17.61089,12.7646 -9.7262,0 -17.6108,-5.7251 -17.6108,-12.7646 0,-7.03957 7.8846,-12.71557 17.6108,-12.71557 z m 45.64149,25.48017 c 11.9842,0 21.6712,11.4502 21.6712,25.529 0,14.0789 -9.6868,25.4802 -21.6712,25.4802 -11.9839,0 -21.7201,-11.401 -21.7201,-25.4802 2e-4,-14.079 9.7363,-25.529 21.7201,-25.529 z m 0.2937,5.6731 c -7.8158,0 -14.1377,6.5406 -14.1377,14.6229 0,8.0824 6.3219,14.6719 14.1377,14.6719 7.8155,0 14.1376,-6.5895 14.1376,-14.6719 0,-8.0823 -6.3221,-14.6232 -14.1376,-14.6229 z m 0.2934,7.5315 c 3.6475,0 6.604,3.1807 6.604,7.0914 0,3.9108 -2.9564,7.0916 -6.604,7.0916 -3.6474,0 -6.6041,-3.1808 -6.6041,-7.0916 3e-4,-3.9107 2.9569,-7.0914 6.6041,-7.0914 z" id="path3618"/>
    <text id="text5064" y="1049.9985" x="458.97839" style="font-style:normal;font-variant:normal;font-weight:normal;font-stretch:normal;font-size:27.38885117px;line-height:0%;font-family:'Yikes!';-inkscape-font-specification:'Yikes!';text-align:center;text-anchor:middle;fill:#000000;fill-opacity:1;stroke:none;stroke-width:2.28240442px;stroke-linecap:butt;stroke-linejoin:miter;stroke-opacity:1" xml:space="preserve"><tspan style="font-style:normal;font-variant:normal;font-weight:normal;font-stretch:normal;font-size:77.29620361px;line-height:1.25;font-family:'URW Gothic L';-inkscape-font-specification:'URW Gothic L';fill:#000000;fill-opacity:1;stroke-width:2.28240442px" y="1049.9985" x="458.97839" id="tspan5066"><tspan style="fill:#3a74ac;fill-opacity:1;stroke-width:2.28240442px" id="tspan5068">O S</tspan><tspan style="fill:#282828;fill-opacity:1;stroke-width:2.28240442px" id="tspan5070"> L A N D I A</tspan></tspan></text>
  </g>
</svg>
