<?xml version="1.0" encoding="utf-8"?>
<!-- Generator: Adobe Illustrator 18.1.0, SVG Export Plug-In . SVG Version: 6.00 Build 0)  -->
<svg version="1.1" id="Calque_1" xmlns="http://www.w3.org/2000/svg" xmlns:xlink="http://www.w3.org/1999/xlink" x="0px" y="0px"
	 viewBox="7 143.2 439 139" enable-background="new 7 143.2 439 139" xml:space="preserve">
<path fill="#008CC7" d="M215.3,246.4h-5.7l-8.4-22.7l-6.3-20.1l-6.5,20.3l-8.4,22.6h-5.7l-18.5-51.8h5.7l15.6,45.9l15.8-45.9h3.7
	l15.7,45.9l15.5-45.9h5.7L215.3,246.4z"/>
<path fill="#008CC7" d="M248.8,177.6c0,5.5-8.3,5.5-8.3,0C240.5,172.2,248.8,172.2,248.8,177.6z M242,194.3v52h5.1v-52H242z"/>
<path fill="#008CC7" d="M267.2,246.4v-46.9h-10.6v-4.5h10.6v-4.6c0-10.3,4.1-17.7,15.5-17.7c3.9,0,7.3,1.4,10.3,3.6l-2.5,3.8
	c-2.8-1.7-4.8-2.6-8-2.6c-6.5,0-10.3,4-10.3,13v4.6h17.1v4.5h-17.1v46.9H267.2z"/>
<path fill="#008CC7" d="M307.2,177.6c0,5.5-8.3,5.5-8.3,0C298.9,172.2,307.2,172.2,307.2,177.6z M300.4,194.3v52h5.1v-52H300.4z"/>
<path fill="#008CC7" d="M325,194.5l0.2,9.2c3.3-7,10.6-9.8,17.2-9.8c3.9-0.1,7.7,0.9,11.1,3l-2.3,4.2c-2.7-1.7-5.8-2.4-8.8-2.4
	c-9.7,0.1-17.1,7.9-17.1,17.3v30.2h-5.1v-51.8H325z"/>
<path fill="#008CC7" d="M394.9,204c-5.2-4.6-10.4-5.5-16.2-5.5c-8.1-0.1-15.8,2.9-15.6,9.6c0.2,6.9,9.2,8.3,15.7,9.4
	c9.2,1.6,21.9,3.1,21.4,15.2c-0.3,11.4-12.2,14.5-21.3,14.5c-9.1,0-18.2-3.5-22.7-10.4l3.8-3.4c4.3,6.2,12.1,8.8,19,8.8
	c6.3,0,15.8-1.7,16.2-9.9c0.2-7.5-8.4-8.9-16.9-10.3c-10.1-1.7-20-3.6-20.1-14c-0.1-10.2,10.1-14.6,20.6-14.5
	c7.6,0,14.2,2.1,19.3,6.9L394.9,204z"/>
<path fill="#008CC7" d="M421.5,178.9v15.6h17.6v4.3h-17.6v31.6c0,7,1.5,12,9.6,12c2.5,0,5.3-0.8,8-2.1l1.8,4.2
	c-3.3,1.6-6.5,2.6-9.8,2.6c-11,0-14.6-6.5-14.6-16.7v-31.6h-11v-4.3h11v-15.1L421.5,178.9z"/>
<path fill="#008CC7" d="M107.1,226.7c3.6-25.8-14.4-49.6-40.1-53.2c-25.2-3.5-48.5,13.6-52.9,38.4c0.1-1.3,0.2-2.7,0.4-4
	c3.8-27.4,29.2-46.5,56.6-42.7c27.4,3.8,46.6,29.2,42.7,56.6c-2.5,17.7-13.9,31.9-29,38.8C96.5,253.5,105.1,241.4,107.1,226.7z"/>
<path fill="#008CC7" d="M121.5,218.6c4-30.8-16.2-59.2-45.8-66c1.9,0.1,3.9,0.2,5.9,0.5c32.8,4.3,55.9,34.3,51.6,67.1
	c-4.3,32.8-34.3,55.9-67.1,51.6c-2-0.3-3.9-0.6-5.8-1C90.8,271.7,117.5,249.4,121.5,218.6z"/>
<path fill="#008CC7" d="M87.4,190c0.6,0.5,1.2,1.1,1.8,1.6c-17.3-12.9-41.9-10.2-56,6.6c-14.3,17.1-12.4,42.4,4.2,57.1
	c-1-0.7-2-1.4-2.9-2.2c-17.4-14.6-19.7-40.6-5.1-58C44,177.7,70,175.4,87.4,190z"/>
</svg>
